<svg width="25" height="24" viewBox="0 0 25 24" fill="none" xmlns="http://www.w3.org/2000/svg">
<path d="M16.04 11.29L10.38 5.63998C10.287 5.54625 10.1764 5.47185 10.0546 5.42108C9.93273 5.37032 9.80202 5.34418 9.67001 5.34418C9.538 5.34418 9.40729 5.37032 9.28544 5.42108C9.16358 5.47185 9.05298 5.54625 8.96001 5.63998C8.77376 5.82734 8.66922 6.08079 8.66922 6.34498C8.66922 6.60916 8.77376 6.86261 8.96001 7.04998L13.91 12.05L8.96001 17C8.77376 17.1873 8.66922 17.4408 8.66922 17.705C8.66922 17.9692 8.77376 18.2226 8.96001 18.41C9.05263 18.5045 9.16307 18.5796 9.28495 18.6311C9.40682 18.6826 9.53771 18.7094 9.67001 18.71C9.80232 18.7094 9.9332 18.6826 10.0551 18.6311C10.177 18.5796 10.2874 18.5045 10.38 18.41L16.04 12.76C16.1415 12.6663 16.2225 12.5527 16.2779 12.4262C16.3333 12.2997 16.3619 12.1631 16.3619 12.025C16.3619 11.8869 16.3333 11.7503 16.2779 11.6238C16.2225 11.4973 16.1415 11.3836 16.04 11.29Z" fill="white"/>
</svg>
