<svg width="16" height="16" viewBox="0 0 16 16" fill="none" xmlns="http://www.w3.org/2000/svg">
<path fill-rule="evenodd" clip-rule="evenodd" d="M8 9.11106L11.2381 5.25613C11.5 4.9444 11.9549 4.91282 12.2541 5.18558C12.5534 5.45834 12.5837 5.93216 12.3218 6.24389L8.54185 10.7439C8.255 11.0854 7.745 11.0854 7.45815 10.7439L3.67815 6.24389C3.4163 5.93216 3.44663 5.45834 3.74589 5.18558C4.04514 4.91282 4.50001 4.9444 4.76186 5.25613L8 9.11106Z" fill="#747681"/>
<mask id="mask0_202_3798" style="mask-type:luminance" maskUnits="userSpaceOnUse" x="3" y="5" width="10" height="6">
<path fill-rule="evenodd" clip-rule="evenodd" d="M8 9.11106L11.2381 5.25613C11.5 4.9444 11.9549 4.91282 12.2541 5.18558C12.5534 5.45834 12.5837 5.93216 12.3218 6.24389L8.54185 10.7439C8.255 11.0854 7.745 11.0854 7.45815 10.7439L3.67815 6.24389C3.4163 5.93216 3.44663 5.45834 3.74589 5.18558C4.04514 4.91282 4.50001 4.9444 4.76186 5.25613L8 9.11106Z" fill="white"/>
</mask>
<g mask="url(#mask0_202_3798)">
</g>
</svg>
