<?xml version="1.0" encoding="UTF-8"?>
<svg width="18px" height="18px" viewBox="0 0 18 18" version="1.1" xmlns="http://www.w3.org/2000/svg" xmlns:xlink="http://www.w3.org/1999/xlink">
    <title>0A22586B-6A8E-47F8-9808-CD381A6F7E9A</title>
    <g id="Page-1" stroke="none" stroke-width="1" fill="none" fill-rule="evenodd">
        <g id="HL-dashboard---lead---timeline---actions" transform="translate(-205.000000, -740.000000)" fill-rule="nonzero">
            <g id="Group-4" transform="translate(119.000000, 100.000000)">
                <g id="Group-3" transform="translate(58.000000, 291.000000)">
                    <g id="Group-2" transform="translate(17.000000, 17.000000)">
                        <g id="Group-5-Copy-3" transform="translate(0.000000, 321.000000)">
                            <g id="2468573" transform="translate(11.000000, 11.000000)">
                                <circle id="Oval" fill="#FF4B07" cx="2.80330796" cy="8.87646481" r="2.80330796"></circle>
                                <path d="M3.94470789,17.754846 C3.62083406,17.7505497 3.30343632,17.6635213 3.02266495,17.5020278 C2.43482753,17.1698472 2.07332521,16.5450459 2.07831452,15.8698631 L2.07831452,13.28963 C2.07831452,12.8789604 2.41122798,12.546047 2.82189754,12.546047 C3.2325671,12.546047 3.56548055,12.8789604 3.56548055,13.28963 L3.56548055,15.8698631 C3.56821485,16.0111563 3.64502331,16.1406097 3.76772315,16.2107239 C3.89042299,16.2808381 4.04094715,16.281289 4.16406488,16.2119112 L16.2733143,9.22223091 C16.3956414,9.15000659 16.470702,9.01852212 16.470702,8.87646481 C16.470702,8.7344075 16.3956414,8.60292304 16.2733143,8.53069871 L4.13803947,1.54101838 C4.01492175,1.4716406 3.86439758,1.47209154 3.74169775,1.54220573 C3.61899791,1.61231993 3.54218945,1.74177335 3.53945515,1.88306657 L3.53945515,4.38894132 C3.53945515,4.79961088 3.20654169,5.13252434 2.79587213,5.13252434 C2.38520257,5.13252434 2.05228912,4.79961088 2.05228912,4.38894132 L2.05228912,1.88306657 C2.05429677,1.21007255 2.41426432,0.588989224 2.99721738,0.25269961 C3.58017045,-0.0835900035 4.29802883,-0.0842748549 4.88162249,0.25090185 L16.9983077,7.2443001 C17.5812518,7.5810926 17.9403171,8.20322414 17.9403171,8.87646481 C17.9403171,9.54970549 17.5812518,10.171837 16.9983077,10.5086295 L4.88162249,17.5020278 C4.59608102,17.6650464 4.27349569,17.7520932 3.94470789,17.754846 L3.94470789,17.754846 Z" id="Path" fill="#FFFFFF"></path>
                            </g>
                        </g>
                    </g>
                </g>
            </g>
        </g>
    </g>
</svg>