<?xml version="1.0" encoding="UTF-8"?>
<svg width="35px" height="42px" viewBox="0 0 35 42" version="1.1" xmlns="http://www.w3.org/2000/svg" xmlns:xlink="http://www.w3.org/1999/xlink">
    <title>8BF2924E-BA37-4DAC-9F3A-4B5904F9063E</title>
    <g id="Page-1" stroke="none" stroke-width="1" fill="none" fill-rule="evenodd">
        <g id="HL-dashboard---lead---overview" transform="translate(-208.000000, -876.000000)" fill="#16D761" fill-rule="nonzero">
            <g id="Group-4" transform="translate(157.000000, 100.000000)">
                <g id="Files" transform="translate(31.000000, 604.000000)">
                    <g id="File" transform="translate(0.000000, 160.000000)">
                        <g id="File-excel" transform="translate(20.000000, 12.000000)">
                            <path d="M30.166655,40.3541506 C31.7656283,40.3541506 33.0624869,39.0577398 33.0624869,37.4583188 L33.0624869,14.5888387 C33.0624869,14.2573181 32.9307908,13.9393757 32.6963704,13.7049552 L21.1075317,2.11611652 C20.8731112,1.88169605 20.5551688,1.75 20.2236482,1.75 L4.64583188,1.75 C3.04572333,1.75 1.75,3.04572333 1.75,4.64583188 L1.75,37.4583188 C1.75,39.0584273 3.04572333,40.3541506 4.64583188,40.3541506 L30.166655,40.3541506 Z M30.166655,41.8541506 L4.64583187,41.8541506 C2.2172962,41.8541506 0.25,39.8868544 0.25,37.4583188 L0.25,4.64583188 C0.25,2.2172962 2.2172962,0.25 4.64583187,0.25 L20.2236482,0.25 C20.9529935,0.25 21.6524668,0.539731311 22.1681918,1.05545635 L33.7570305,12.644295 C34.2727556,13.1600201 34.5624869,13.8594933 34.5624869,14.5888387 L34.5624869,37.4583188 C34.5624869,39.886283 32.5939395,41.8541506 30.166655,41.8541506 Z" id="Shape"></path>
                            <path d="M30.166655,41.8541506 L4.64583187,41.8541506 C2.2172962,41.8541506 0.25,39.8868544 0.25,37.4583188 L0.25,4.64583188 C0.25,2.2172962 2.2172962,0.25 4.64583187,0.25 L20.2236482,0.25 C20.9529935,0.25 21.6524668,0.539731311 22.1681918,1.05545635 L33.7570305,12.644295 C34.2727556,13.1600201 34.5624869,13.8594933 34.5624869,14.5888387 L34.5624869,37.4583188 C34.5624869,39.886283 32.5939395,41.8541506 30.166655,41.8541506 Z" id="Path" fill-opacity="0.09"></path>
                            <path d="M25.5,17 C26.4941125,17 27.3,17.8058875 27.3,18.8 L27.3,34.8 C27.3,35.7941125 26.4941125,36.6 25.5,36.6 L9.5,36.6 C8.50588745,36.6 7.7,35.7941125 7.7,34.8 L7.7,18.8 C7.7,17.8058875 8.50588745,17 9.5,17 L25.5,17 Z M13.699,30.6 L9.299,30.6 L9.3,34.8 C9.3,34.9104569 9.38954305,35 9.5,35 L13.699,35 L13.699,30.6 Z M19.699,30.6 L15.299,30.6 L15.299,35 L19.699,35 L19.699,30.6 Z M25.699,30.6 L21.299,30.6 L21.299,35 L25.5,35 C25.6104569,35 25.7,34.9104569 25.7,34.8 L25.699,30.6 Z M13.699,24.6 L9.299,24.6 L9.299,29 L13.699,29 L13.699,24.6 Z M19.699,24.6 L15.299,24.6 L15.299,29 L19.699,29 L19.699,24.6 Z M25.699,24.6 L21.299,24.6 L21.299,29 L25.699,29 L25.699,24.6 Z M13.699,18.6 L9.5,18.6 C9.38954305,18.6 9.3,18.6895431 9.3,18.8 L9.299,23 L13.699,23 L13.699,18.6 Z M19.699,18.6 L15.299,18.6 L15.299,23 L19.699,23 L19.699,18.6 Z M25.5,18.6 L21.299,18.6 L21.299,23 L25.699,23 L25.7,18.8 C25.7,18.6895431 25.6104569,18.6 25.5,18.6 Z" id="Shape"></path>
                        </g>
                    </g>
                </g>
            </g>
        </g>
    </g>
</svg>