<?xml version="1.0" encoding="UTF-8"?>
<svg width="16px" height="16px" viewBox="0 0 16 16" version="1.1" xmlns="http://www.w3.org/2000/svg" xmlns:xlink="http://www.w3.org/1999/xlink">
    <title>1971F3CC-EE9F-4F12-ACA3-E9B5BF81C44F</title>
    <g id="Page-1" stroke="none" stroke-width="1" fill="none" fill-rule="evenodd">
        <g id="HL-dashboard---lead---timeline---actions" transform="translate(-207.000000, -671.000000)" fill="#FFFFFF" fill-rule="nonzero">
            <g id="Group-4" transform="translate(119.000000, 100.000000)">
                <g id="Group-3" transform="translate(58.000000, 291.000000)">
                    <g id="Group-2" transform="translate(17.000000, 17.000000)">
                        <g id="1636506" transform="translate(13.000000, 263.000000)">
                            <path d="M14.9261425,9.92327781 C15.6182933,8.90143659 15.9886292,7.69575664 15.9894403,6.46156398 C15.8891743,2.80458441 12.851294,-0.0831888587 9.19392819,0.00183008886 C6.73498892,-0.029681032 4.44731968,1.25751419 3.19788807,3.375602 C1.23579978,4.50830388 0.0193626619,6.59449353 -7.10073792e-16,8.85998003 C0.000811137552,10.0941727 0.371147013,11.2998526 1.06329778,12.3216939 L0.0559630412,14.9039885 C-0.042966564,15.178241 0.015242112,15.4846025 0.207862724,15.7034605 C0.3546244,15.8798529 0.570103661,15.9846806 0.799472016,15.9912704 C0.870953782,16.0029099 0.943847695,16.0029099 1.01532946,15.9912704 L4.58097465,14.9999251 C5.294923,15.2384838 6.04276225,15.3599739 6.79551214,15.3596875 C8.88787576,15.3655747 10.869865,14.4216303 12.1839535,12.7933824 L14.9741109,13.5928544 C15.0455926,13.6044938 15.1184865,13.6044938 15.1899683,13.5928544 C15.4155619,13.5923211 15.6304301,13.4965016 15.7815776,13.3290286 C15.9741982,13.1101706 16.0324069,12.8038091 15.9334773,12.5295566 L14.9261425,9.92327781 Z M11.4804182,10.946602 L11.3844815,10.946602 C11.2882777,10.9449957 11.192852,10.9640808 11.1046663,11.002565 C10.4926459,11.2276005 9.846005,11.3439417 9.19392819,11.346338 C6.41037812,11.4315507 4.08432404,9.24505989 3.99736008,6.46156398 C3.99815269,5.79886694 4.142718,5.14423156 4.42108025,4.54283114 C4.82705733,3.65957193 5.48301332,2.91467275 6.30783421,2.40024614 C7.17499672,1.86640047 8.17568061,1.58920272 9.19392819,1.60077412 C11.9684271,1.51539482 14.2906311,3.68754875 14.3904963,6.46156398 C14.3880958,7.37792421 14.109482,8.27227443 13.5910243,9.02786915 C13.5270665,9.1238058 13.4711035,9.22773716 13.399151,9.31567908 C13.2201578,9.54238283 13.1773701,9.84800863 13.2872249,10.1151511 L13.399151,10.402961 L13.8708395,11.6101638 L13.0713675,11.3863116 L11.6083337,10.9785809 L11.4804182,10.946602 Z M6.79551214,13.7287646 C6.14343533,13.7263683 5.49679441,13.6100271 4.88477402,13.3849916 C4.72694503,13.3295315 4.55492508,13.3295315 4.39709609,13.3849916 L2.12659556,14.0165745 L2.71021014,12.5215619 C2.8200649,12.2544194 2.77727729,11.9487936 2.59828405,11.7220899 C1.33339683,10.1487455 1.25211663,7.93142162 2.39841605,6.2696907 C2.39841605,6.33364846 2.39841605,6.39760622 2.39841605,6.46156398 C2.49436202,10.1216959 5.53352509,13.014264 9.19392819,12.9292926 C9.36981203,12.9292926 9.53770116,12.9292926 9.713585,12.889319 C8.84018359,13.4402019 7.82812794,13.7313412 6.79551214,13.7287646 Z" id="Shape"></path>
                        </g>
                    </g>
                </g>
            </g>
        </g>
    </g>
</svg>