<svg width="14" height="14" viewBox="0 0 14 14" fill="#979EAB" xmlns="http://www.w3.org/2000/svg">
<path d="M10.683 12.5798C10.4231 12.5798 10.1632 12.5798 9.90329 12.5798C9.28552 12.5798 8.66775 12.5798 8.04998 12.5798C7.3044 12.5798 6.56024 12.5798 5.81466 12.5798C5.17843 12.5798 4.5422 12.5798 3.90738 12.5798C3.61483 12.5798 3.32228 12.5812 3.03115 12.5798C2.97718 12.5798 2.92322 12.5755 2.86925 12.5698C2.93174 12.5784 2.99564 12.5869 3.05813 12.5954C2.9573 12.5812 2.85931 12.5556 2.76416 12.5173C2.82096 12.5414 2.87777 12.5656 2.93316 12.5883C2.83517 12.5471 2.74428 12.4946 2.66049 12.4292C2.70877 12.4662 2.75564 12.5031 2.80392 12.54C2.72581 12.4789 2.65623 12.4094 2.59516 12.3312C2.63208 12.3795 2.66901 12.4264 2.70593 12.4747C2.64202 12.3909 2.58806 12.3 2.54687 12.202C2.57102 12.2588 2.59516 12.3156 2.61788 12.371C2.57954 12.2759 2.55397 12.1779 2.53977 12.077C2.54829 12.1395 2.55682 12.2034 2.56534 12.2659C2.54971 12.1424 2.5554 12.016 2.5554 11.891C2.5554 11.6694 2.5554 11.4479 2.5554 11.2249C2.5554 10.4808 2.5554 9.73661 2.5554 8.99245C2.5554 8.08355 2.5554 7.17323 2.5554 6.26433C2.5554 5.47472 2.5554 4.68511 2.5554 3.89551C2.5554 3.51064 2.56108 3.12578 2.5554 2.74092C2.5554 2.73524 2.5554 2.72956 2.5554 2.7253C2.31823 2.96246 2.08248 3.19821 1.84532 3.43538C1.93479 3.43538 2.02426 3.43538 2.11373 3.43538C2.35657 3.43538 2.60084 3.43538 2.84369 3.43538C3.20157 3.43538 3.55945 3.43538 3.91733 3.43538C4.35615 3.43538 4.79498 3.43538 5.23381 3.43538C5.71525 3.43538 6.19526 3.43538 6.67669 3.43538C7.15955 3.43538 7.6424 3.43538 8.12525 3.43538C8.57828 3.43538 9.02989 3.43538 9.48292 3.43538C9.86494 3.43538 10.2484 3.43538 10.6304 3.43538C10.9059 3.43538 11.18 3.43538 11.4555 3.43538C11.5848 3.43538 11.7154 3.4368 11.8446 3.43538C11.8503 3.43538 11.856 3.43538 11.8617 3.43538C11.6245 3.19821 11.3888 2.96246 11.1516 2.7253C11.1516 3.04341 11.1516 3.36153 11.1516 3.67964C11.1516 4.43659 11.1516 5.19353 11.1516 5.94905C11.1516 6.85938 11.1516 7.7697 11.1516 8.68002C11.1516 9.45826 11.1516 10.2379 11.1516 11.0162C11.1516 11.3783 11.153 11.7405 11.1516 12.1026C11.1516 12.158 11.1488 12.2119 11.1417 12.2673C11.1502 12.2048 11.1587 12.1409 11.1672 12.0785C11.153 12.1793 11.1275 12.2773 11.0891 12.3724C11.1133 12.3156 11.1374 12.2588 11.1601 12.2034C11.1189 12.3014 11.0664 12.3923 11.0011 12.4761C11.038 12.4278 11.0749 12.3809 11.1118 12.3327C11.0508 12.4108 10.9812 12.4804 10.9031 12.5414C10.9514 12.5045 10.9982 12.4676 11.0465 12.4307C10.9627 12.4946 10.8718 12.5485 10.7738 12.5897C10.8307 12.5656 10.8875 12.5414 10.9428 12.5187C10.8477 12.557 10.7497 12.5826 10.6489 12.5968C10.7114 12.5883 10.7753 12.5798 10.8378 12.5712C10.788 12.5769 10.7355 12.5798 10.683 12.5798C10.4998 12.5812 10.3109 12.6579 10.1802 12.7871C10.0567 12.9107 9.96436 13.1123 9.97288 13.2898C9.9814 13.473 10.041 13.6634 10.1802 13.7926C10.318 13.919 10.4898 14.0028 10.683 13.9999C11.1871 13.9957 11.6884 13.7926 12.0392 13.4262C12.3786 13.0711 12.5703 12.6011 12.5732 12.1097C12.5746 12.0032 12.5732 11.8967 12.5732 11.7887C12.5732 11.5118 12.5732 11.2349 12.5732 10.9579C12.5732 10.5589 12.5732 10.1584 12.5732 9.75934C12.5732 9.28358 12.5732 8.80925 12.5732 8.3335C12.5732 7.82934 12.5732 7.32519 12.5732 6.82245C12.5732 6.33676 12.5732 5.85106 12.5732 5.36679C12.5732 4.94642 12.5732 4.52748 12.5732 4.10711C12.5732 3.80036 12.5732 3.4936 12.5732 3.18543C12.5732 3.03773 12.5746 2.89146 12.5732 2.74376C12.5732 2.73808 12.5732 2.73098 12.5732 2.7253C12.5732 2.34185 12.248 2.01522 11.8631 2.01522C11.7736 2.01522 11.6842 2.01522 11.5947 2.01522C11.3519 2.01522 11.1076 2.01522 10.8647 2.01522C10.5069 2.01522 10.149 2.01522 9.7911 2.01522C9.35227 2.01522 8.91344 2.01522 8.47461 2.01522C7.99318 2.01522 7.51316 2.01522 7.03173 2.01522C6.54888 2.01522 6.06602 2.01522 5.58317 2.01522C5.13014 2.01522 4.67853 2.01522 4.2255 2.01522C3.84348 2.01522 3.46004 2.01522 3.07801 2.01522C2.8025 2.01522 2.52841 2.01522 2.2529 2.01522C2.12367 2.01522 1.99301 2.0138 1.86378 2.01522C1.8581 2.01522 1.85242 2.01522 1.84674 2.01522C1.46329 2.01522 1.13666 2.34043 1.13666 2.7253C1.13666 3.01359 1.13666 3.3033 1.13666 3.59159C1.13666 4.29315 1.13666 4.99329 1.13666 5.69485C1.13666 6.56114 1.13666 7.42744 1.13666 8.29231C1.13666 9.07624 1.13666 9.85875 1.13666 10.6427C1.13666 11.0957 1.13666 11.5502 1.13666 12.0032C1.13666 12.0358 1.13666 12.0685 1.13666 12.1026C1.13808 12.4221 1.21761 12.7204 1.36246 13.003C1.67774 13.6207 2.35799 13.9971 3.04109 13.9985C3.44867 13.9999 3.85626 13.9985 4.26384 13.9985C5.06907 13.9985 5.87288 13.9985 6.67811 13.9985C7.50748 13.9985 8.33828 13.9985 9.16765 13.9985C9.6505 13.9985 10.1334 13.9985 10.6162 13.9985C10.6389 13.9985 10.6617 13.9985 10.6844 13.9985C10.8662 13.9985 11.0579 13.919 11.1871 13.7912C11.3107 13.6676 11.403 13.4659 11.3945 13.2884C11.3859 13.1052 11.3263 12.9149 11.1871 12.7857C11.0465 12.6607 10.8747 12.5798 10.683 12.5798Z" fill="#979EAB"/>
<path d="M8.44054 1.80771e-05C8.19769 1.80771e-05 7.95342 1.80771e-05 7.71058 1.80771e-05C7.23482 1.80771e-05 6.75907 1.80771e-05 6.28474 1.80771e-05C5.9581 1.80771e-05 5.63289 1.80771e-05 5.30625 1.80771e-05C5.26649 1.80771e-05 5.22814 1.80772e-05 5.18838 0.00285839C4.91429 0.0270011 4.6402 0.0923283 4.41013 0.252806C4.19001 0.404763 3.98976 0.596484 3.86905 0.839331C3.75118 1.07792 3.68443 1.31934 3.68159 1.58775C3.67875 1.95557 3.68159 2.3234 3.68159 2.69122C3.68159 2.704 3.68159 2.71536 3.68159 2.72814C3.68159 3.11158 4.00681 3.43822 4.39167 3.43822C4.55499 3.43822 4.71831 3.43822 4.88162 3.43822C5.27359 3.43822 5.66555 3.43822 6.05751 3.43822C6.53185 3.43822 7.00618 3.43822 7.47909 3.43822C7.88952 3.43822 8.29852 3.43822 8.70895 3.43822C8.90777 3.43822 9.10801 3.44106 9.30683 3.43822C9.30967 3.43822 9.31251 3.43822 9.31536 3.43822C9.6988 3.43822 10.0254 3.113 10.0254 2.72814C10.0254 2.45689 10.0254 2.18706 10.0254 1.91581C10.0254 1.80646 10.0269 1.69853 10.0254 1.58917C10.024 1.43296 10.0056 1.27106 9.95585 1.12194C9.87916 0.887616 9.77265 0.714357 9.61643 0.525476C9.57382 0.472931 9.52412 0.427485 9.47015 0.386301C9.37358 0.311033 9.27985 0.231504 9.16766 0.180378C8.93191 0.0667655 8.70611 0.00285839 8.44054 1.80771e-05C8.26018 -0.00140208 8.06562 0.0809671 7.9378 0.207361C7.81425 0.330915 7.72194 0.532577 7.73046 0.710097C7.7475 1.0978 8.04289 1.41592 8.44054 1.42018C8.4803 1.42018 8.51865 1.42302 8.55699 1.42728C8.4945 1.41876 8.4306 1.41023 8.36811 1.40171C8.44338 1.41307 8.51581 1.43154 8.58681 1.46136C8.53001 1.43722 8.4732 1.41307 8.41782 1.39035C8.48598 1.42018 8.54989 1.4571 8.60954 1.50112C8.56125 1.4642 8.51439 1.42728 8.4661 1.39035C8.53001 1.44006 8.58539 1.49544 8.6351 1.55935C8.59818 1.51107 8.56125 1.4642 8.52433 1.41592C8.56835 1.47556 8.60528 1.53947 8.6351 1.60764C8.61096 1.55083 8.58681 1.49402 8.56409 1.43864C8.5925 1.50965 8.61238 1.58207 8.62374 1.65734C8.61522 1.59485 8.6067 1.53095 8.59818 1.46846C8.62374 1.68006 8.60528 1.90161 8.60528 2.11463C8.60528 2.31913 8.60528 2.52364 8.60528 2.72814C8.84244 2.49097 9.07819 2.25523 9.31536 2.01806C9.15204 2.01806 8.98872 2.01806 8.8254 2.01806C8.43344 2.01806 8.04147 2.01806 7.64951 2.01806C7.17518 2.01806 6.70085 2.01806 6.22793 2.01806C5.81751 2.01806 5.4085 2.01806 4.99808 2.01806C4.79925 2.01806 4.59901 2.0138 4.40019 2.01806C4.39735 2.01806 4.39451 2.01806 4.39167 2.01806C4.62884 2.25523 4.86458 2.49097 5.10175 2.72814C5.10175 2.52364 5.10175 2.31913 5.10175 2.11463C5.10175 1.90161 5.08329 1.68006 5.10885 1.46846C5.10033 1.53095 5.09181 1.59485 5.08329 1.65734C5.09465 1.58207 5.11311 1.50965 5.14293 1.43864C5.11879 1.49544 5.09465 1.55225 5.07192 1.60764C5.10175 1.53947 5.13867 1.47556 5.1827 1.41592C5.14577 1.4642 5.10885 1.51107 5.07192 1.55935C5.12163 1.49544 5.17702 1.44006 5.24092 1.39035C5.19264 1.42728 5.14577 1.4642 5.09749 1.50112C5.15713 1.4571 5.22104 1.42018 5.28921 1.39035C5.2324 1.41449 5.1756 1.43864 5.12021 1.46136C5.19122 1.43296 5.26365 1.41307 5.33891 1.40171C5.27643 1.41023 5.21252 1.41876 5.15003 1.42728C5.27927 1.41165 5.41276 1.42018 5.54342 1.42018C5.79336 1.42018 6.04189 1.42018 6.29184 1.42018C6.8741 1.42018 7.45637 1.42018 8.03721 1.42018C8.17213 1.42018 8.30704 1.42018 8.44054 1.42018C8.62232 1.42018 8.81404 1.34065 8.94327 1.21283C9.06683 1.08928 9.15914 0.887616 9.15062 0.710097C9.1421 0.526896 9.08245 0.336595 8.94327 0.207361C8.8041 0.0795469 8.63368 1.80771e-05 8.44054 1.80771e-05Z" fill="#979EAB"/>
<path fill-rule="evenodd" clip-rule="evenodd" d="M12.9992 2.01665H12.6698H11.7737H10.4543H8.84529H7.07577H5.28921H3.62337H2.22167H1.21194C1.15839 2.01665 1.10485 2.01649 1.05136 2.01634L1.0512 2.01634C0.944424 2.01602 0.83786 2.01571 0.731927 2.01665H0.710624C0.528844 2.01665 0.337123 2.09618 0.207888 2.224C0.0843347 2.34755 -0.00797552 2.54921 0.000545428 2.72673C0.00906637 2.90993 0.068713 3.10023 0.207888 3.22947C0.347064 3.35728 0.517483 3.43681 0.710624 3.43681H1.0401H1.93622H3.25555H4.86458H6.6341H8.42066H10.0865H11.4882H12.4979C12.5515 3.43681 12.605 3.43697 12.6585 3.43713C12.7653 3.43744 12.872 3.43776 12.9779 3.43681H12.9992C13.181 3.43681 13.3727 3.35728 13.502 3.22947C13.6255 3.10591 13.7178 2.90425 13.7093 2.72673C13.7008 2.54353 13.6412 2.35323 13.502 2.224C13.3628 2.0976 13.1924 2.01665 12.9992 2.01665ZM5.80331 10.8074V10.2507V8.91436V7.29822V5.89936C5.80331 5.82362 5.80362 5.74788 5.80394 5.67214C5.80457 5.52065 5.8052 5.36917 5.80331 5.21769V5.20775C5.80331 5.02597 5.72378 4.83424 5.59597 4.70501C5.47241 4.58146 5.27075 4.48915 5.09323 4.49767C4.91003 4.50619 4.71973 4.56584 4.59049 4.70501C4.46268 4.84419 4.38315 5.01461 4.38315 5.20775V5.76445V7.10082V8.71696V10.1158C4.38315 10.1916 4.38284 10.2673 4.38252 10.343V10.3431C4.38189 10.4946 4.38126 10.646 4.38315 10.7975V10.8074C4.38315 10.9892 4.46268 11.1809 4.59049 11.3102C4.71405 11.4337 4.91571 11.526 5.09323 11.5175C5.27643 11.509 5.46673 11.4493 5.59597 11.3102C5.72378 11.171 5.80331 11.0006 5.80331 10.8074ZM9.3253 10.2507V10.8074C9.3253 11.0006 9.24435 11.171 9.11796 11.3102C8.98872 11.4493 8.79842 11.509 8.61522 11.5175C8.4377 11.526 8.23604 11.4337 8.11248 11.3102C7.98467 11.1809 7.90514 10.9892 7.90514 10.8074V10.7975C7.90325 10.646 7.90388 10.4945 7.90451 10.343C7.90483 10.2673 7.90514 10.1916 7.90514 10.1158V8.71696V7.10082V5.76445V5.20775C7.90514 5.01461 7.98467 4.84419 8.11248 4.70501C8.24172 4.56584 8.43202 4.50619 8.61522 4.49767C8.79274 4.48915 8.9944 4.58146 9.11796 4.70501C9.24577 4.83424 9.3253 5.02597 9.3253 5.20775V5.21769C9.32719 5.36917 9.32656 5.52065 9.32593 5.67214C9.32561 5.74788 9.3253 5.82362 9.3253 5.89936V7.29822V8.91436V10.2507Z" fill="#979EAB"/>
</svg>
