<svg width="16" height="16" viewBox="0 0 16 16" fill="none" xmlns="http://www.w3.org/2000/svg">
<path fill-rule="evenodd" clip-rule="evenodd" d="M3.78712 6.78814C4.42471 7.43902 4.42471 8.49429 3.78712 9.14517C3.14953 9.79604 2.11579 9.79604 1.47819 9.14517C0.840602 8.49429 0.840602 7.43902 1.47819 6.78814C2.11578 6.13727 3.14952 6.13727 3.78712 6.78814ZM9.15446 6.78814C9.79205 7.43902 9.79205 8.49429 9.15446 9.14517C8.51687 9.79604 7.48313 9.79604 6.84553 9.14517C6.20794 8.49429 6.20794 7.43902 6.84553 6.78814C7.48313 6.13727 8.51687 6.13727 9.15446 6.78814ZM14.5171 9.14517C15.1547 8.49429 15.1547 7.43902 14.5171 6.78814C13.8795 6.13727 12.8458 6.13727 12.2082 6.78814C11.5706 7.43902 11.5706 8.49429 12.2082 9.14517C12.8458 9.79604 13.8795 9.79604 14.5171 9.14517Z" fill="#747681"/>
<mask id="mask0_76_3479" style="mask-type:luminance" maskUnits="userSpaceOnUse" x="1" y="6" width="14" height="4">
<path fill-rule="evenodd" clip-rule="evenodd" d="M3.78712 6.78814C4.42471 7.43902 4.42471 8.49429 3.78712 9.14517C3.14953 9.79604 2.11579 9.79604 1.47819 9.14517C0.840602 8.49429 0.840602 7.43902 1.47819 6.78814C2.11578 6.13727 3.14952 6.13727 3.78712 6.78814ZM9.15446 6.78814C9.79205 7.43902 9.79205 8.49429 9.15446 9.14517C8.51687 9.79604 7.48313 9.79604 6.84553 9.14517C6.20794 8.49429 6.20794 7.43902 6.84553 6.78814C7.48313 6.13727 8.51687 6.13727 9.15446 6.78814ZM14.5171 9.14517C15.1547 8.49429 15.1547 7.43902 14.5171 6.78814C13.8795 6.13727 12.8458 6.13727 12.2082 6.78814C11.5706 7.43902 11.5706 8.49429 12.2082 9.14517C12.8458 9.79604 13.8795 9.79604 14.5171 9.14517Z" fill="white"/>
</mask>
<g mask="url(#mask0_76_3479)">
</g>
</svg>
