<?xml version="1.0" encoding="UTF-8"?>
<svg width="15px" height="16px" viewBox="0 0 15 16" version="1.1" xmlns="http://www.w3.org/2000/svg" xmlns:xlink="http://www.w3.org/1999/xlink">
    <title>015D9262-F487-4C62-9612-9C2A069A49A8</title>
    <g id="Page-1" stroke="none" stroke-width="1" fill="none" fill-rule="evenodd">
        <g id="HL-dashboard---lead---timeline" transform="translate(-769.000000, -692.000000)" fill="#979EAB" fill-rule="nonzero">
            <g id="Group-4" transform="translate(157.000000, 100.000000)">
                <g id="Group-3" transform="translate(20.000000, 291.000000)">
                    <g id="Group-2" transform="translate(17.000000, 17.000000)">
                        <g id="Widgets/Dropdown-Copy" transform="translate(561.000000, 212.000000)">
                            <g id="Section" transform="translate(13.000000, 4.000000)">
                                <g id="1721531" transform="translate(1.000000, 68.000000)">
                                    <rect id="Rectangle" x="6.08" y="3.2" width="4.48" height="1"></rect>
                                    <rect id="Rectangle" x="6.08" y="1.92" width="4.48" height="1"></rect>
                                    <path d="M12.8,14.08 L0,14.08 L0,3.84 L3.84,3.84 L3.84,0 L12.8,0 L12.8,14.08 Z M0.64,13.44 L12.16,13.44 L12.16,0.64 L4.48,0.64 L4.48,4.48 L0.64,4.48 L0.64,13.44 Z" id="Shape"></path>
                                    <path d="M14.72,16 L1.92,16 L1.92,13.44 L12.16,13.44 L12.16,1.92 L14.72,1.92 L14.72,16 Z M2.56,15.36 L14.08,15.36 L14.08,2.56 L12.8,2.56 L12.8,14.08 L2.56,14.08 L2.56,15.36 Z M3.2,3.2 L0,3.2 L0,2.427456 L2.427456,0 L3.2,0 L3.2,3.2 Z M0.772544,2.56 L2.56,2.56 L2.56,0.772544 L0.772544,2.56 Z" id="Shape"></path>
                                    <path d="M10.56,12.16 L2.24,12.16 L2.24,5.12 L10.56,5.12 L10.56,12.16 Z M2.88,11.52 L9.92,11.52 L9.92,5.76 L2.88,5.76 L2.88,11.52 Z" id="Shape"></path>
                                    <polygon id="Path" points="5.76 10.372544 4.25376 8.86624 4.70624 8.41376 5.76 9.467456 8.09376 7.13376 8.54624 7.58624"></polygon>
                                </g>
                            </g>
                        </g>
                    </g>
                </g>
            </g>
        </g>
    </g>
</svg>