<?xml version="1.0" encoding="UTF-8"?>
<svg width="103px" height="61px" viewBox="0 0 103 61" version="1.1" xmlns="http://www.w3.org/2000/svg" xmlns:xlink="http://www.w3.org/1999/xlink">
    <title>E198AC1B-0F2D-4206-B345-730FB6E1FB3A</title>
    <g id="Page-1" stroke="none" stroke-width="1" fill="none" fill-rule="evenodd">
        <g id="HL-dashboard---search-no-results" transform="translate(-789.000000, -299.000000)">
            <g id="All-Files-Copy-4" transform="translate(277.000000, 153.000000)">
                <g id="Group-60" transform="translate(512.000000, 146.000000)">
                    <line x1="9.2863011e-14" y1="59.6843402" x2="95.3156436" y2="59.6843402" id="Path" stroke="#D6DCE8" stroke-width="2" stroke-linejoin="round"></line>
                    <line x1="98.0536634" y1="59.6843402" x2="102.031485" y2="59.6843402" id="Path" stroke="#D6DCE8" stroke-width="2" stroke-linejoin="round"></line>
                    <path d="M79.4691089,14.5061223 L17.4219802,14.5061223 C16.1459406,14.5061223 15.029703,15.622954 15.029703,16.9001818 L15.029703,56.9516669 C15.029703,58.222954 16.1459406,57.7477065 17.4219802,57.7477065 L79.3093069,57.7477065 C80.5853465,57.7477065 81.7015842,58.222954 81.7015842,56.9516669 L81.7015842,16.9001818 C81.8613861,15.622954 80.7451485,14.5061223 79.4691089,14.5061223 Z" id="Path" stroke="#D6DCE8" stroke-width="2" fill="#F1F3F9" fill-rule="nonzero" stroke-linejoin="round"></path>
                    <path d="M77.3839604,16.8348352 L19.6413861,16.8348352 C18.4538614,16.8348352 17.4148515,17.832855 17.4148515,18.9793897 L17.4148515,54.8308748 C17.4148515,55.9714689 18.4538614,55.5437461 19.6413861,55.5437461 L77.2354455,55.5437461 C78.4229703,55.5437461 79.4619802,55.9714689 79.4619802,54.8308748 L79.4619802,18.9793897 C79.610495,17.832855 78.5714851,16.8348352 77.3839604,16.8348352 Z" id="Path" fill="#FFFFFF" fill-rule="nonzero"></path>
                    <path d="M91.1126733,55.5140431 L91.1126733,56.7912709 C91.1126733,58.222954 89.8366337,59.5001818 88.4007921,59.5001818 L8.48970297,59.5001818 C7.05445545,59.5001818 5.77841584,58.222954 5.77841584,56.7912709 L5.77841584,55.5140431 L91.1126733,55.5140431 Z" id="Path" stroke="#D6DCE8" stroke-width="2" fill="#F1F3F9" fill-rule="nonzero" stroke-linejoin="round"></path>
                    <path d="M55.8623762,55.5140431 L55.8623762,55.9892907 C55.8623762,56.7912709 55.2243564,57.5873105 54.2673267,57.5873105 L42.4639604,57.5873105 C41.6667327,57.5873105 40.8689109,56.9516669 40.8689109,55.9892907 L40.8689109,55.5140431 L55.8623762,55.5140431 Z" id="Path" stroke="#D6DCE8" stroke-width="2" fill="#F1F3F9" fill-rule="nonzero" stroke-linejoin="round"></path>
                    <path d="M68.0108911,50.3813699 L29.0091089,50.3813699 C28.1180198,50.3813699 27.4384158,49.662558 27.4384158,48.813053 L27.4384158,23.5417659 C27.4384158,22.6506768 28.160198,21.9675085 29.0091089,21.9675085 L68.0108911,21.9675085 C68.9019802,21.9675085 69.5809901,22.692261 69.5809901,23.5417659 L69.5809901,48.813053 C69.5809901,49.662558 68.859802,50.3813699 68.0108911,50.3813699 Z" id="Path" stroke="#D6DCE8" stroke-width="2" fill="#FFFFFF" fill-rule="nonzero" stroke-linejoin="round"></path>
                    <line x1="27.4384158" y1="26.4942412" x2="69.5809901" y2="26.4942412" id="Path" stroke="#D6DCE8" stroke-width="2" stroke-linejoin="round"></line>
                    <line x1="27.4384158" y1="34.442756" x2="69.5809901" y2="34.442756" id="Path" stroke="#D6DCE8" stroke-width="2" stroke-linejoin="round"></line>
                    <line x1="27.4384158" y1="42.3912709" x2="69.5809901" y2="42.3912709" id="Path" stroke="#D6DCE8" stroke-width="2" stroke-linejoin="round"></line>
                    <line x1="53.0720792" y1="26.4942412" x2="53.0720792" y2="50.3813699" id="Path" stroke="#D6DCE8" stroke-width="2" stroke-linejoin="round"></line>
                    <line x1="61.5178218" y1="26.4942412" x2="61.5178218" y2="50.3813699" id="Path" stroke="#D6DCE8" stroke-width="2" stroke-linejoin="round"></line>
                    <line x1="44.4992079" y1="26.4942412" x2="44.4992079" y2="50.3813699" id="Path" stroke="#D6DCE8" stroke-width="2" stroke-linejoin="round"></line>
                    <line x1="35.9269307" y1="26.4942412" x2="35.9269307" y2="50.3813699" id="Path" stroke="#D6DCE8" stroke-width="2" stroke-linejoin="round"></line>
                    <path d="M57.3588119,32.7437461 C58.5540594,32.7437461 59.5229703,31.7694887 59.5229703,30.5754293 C59.5229703,29.3754293 58.5540594,28.4071124 57.3588119,28.4071124 C56.1629703,28.4071124 55.1940594,29.3754293 55.1940594,30.5754293 C55.1940594,31.7694887 56.1629703,32.7437461 57.3588119,32.7437461 Z" id="Path" stroke="#AAB2C5" stroke-width="2" fill="#D6DCE8" fill-rule="nonzero"></path>
                    <path d="M57.3588119,40.5615679 C58.5540594,40.5615679 59.5229703,39.5932511 59.5229703,38.3932511 C59.5229703,37.1991917 58.5540594,36.2249342 57.3588119,36.2249342 C56.1629703,36.2249342 55.1940594,37.1991917 55.1940594,38.3932511 C55.1940594,39.5932511 56.1629703,40.5615679 57.3588119,40.5615679 Z" id="Path" stroke="#D6DCE8" stroke-width="2" fill="#FFFFFF" fill-rule="nonzero" stroke-linejoin="round"></path>
                    <path d="M57.3588119,48.5160233 C58.5540594,48.5160233 59.5229703,47.5417659 59.5229703,46.3477065 C59.5229703,45.1477065 58.5540594,44.1793897 57.3588119,44.1793897 C56.1629703,44.1793897 55.1940594,45.1477065 55.1940594,46.3477065 C55.1940594,47.5417659 56.1629703,48.5160233 57.3588119,48.5160233 Z" id="Path" stroke="#D6DCE8" stroke-width="2" fill="#FFFFFF" fill-rule="nonzero" stroke-linejoin="round"></path>
                    <path d="M81.5720792,25.9892907 C88.2766337,25.9892907 93.7116832,20.5536471 93.7116832,13.8467164 C93.7116832,7.14572631 88.2766337,1.71008274 81.5720792,1.71008274 C74.8675248,1.71008274 69.4324752,7.14572631 69.4324752,13.8467164 C69.4324752,20.5536471 74.8675248,25.9892907 81.5720792,25.9892907 Z" id="Path" stroke="#AAB2C5" stroke-width="2" fill="#D6DCE8" fill-rule="nonzero"></path>
                    <path d="M78.3611881,14.2863204 C80.0518812,14.2863204 81.4223762,12.9140431 81.4223762,11.2209738 C81.4223762,9.53384512 80.0518812,8.16156789 78.3611881,8.16156789 C76.670495,8.16156789 75.3,9.53384512 75.3,11.2209738 C75.3,12.9140431 76.670495,14.2863204 78.3611881,14.2863204 Z" id="Path" stroke="#AAB2C5" stroke-width="2" fill="#FFFFFF" fill-rule="nonzero"></path>
                    <line x1="77.4605941" y1="19.7991917" x2="78.870297" y2="18.3912709" id="Path" stroke="#AAB2C5" stroke-width="2" stroke-linecap="round"></line>
                    <line x1="86.2710891" y1="19.7991917" x2="84.8221782" y2="18.3912709" id="Path" stroke="#AAB2C5" stroke-width="2" stroke-linecap="round"></line>
                    <path d="M85.1358416,14.2863204 C86.8259406,14.2863204 88.1964356,12.9140431 88.1964356,11.2209738 C88.1964356,9.53384512 86.8259406,8.16156789 85.1358416,8.16156789 C83.4451485,8.16156789 82.0746535,9.53384512 82.0746535,11.2209738 C82.0746535,12.9140431 83.4451485,14.2863204 85.1358416,14.2863204 Z" id="Path" stroke="#AAB2C5" stroke-width="2" fill="#FFFFFF" fill-rule="nonzero"></path>
                    <path d="M81.8073267,20.0011719 C84.7734653,20.0011719 87.1788119,17.5952313 87.1788119,14.6308748 C87.1788119,11.6665184 84.7734653,9.26057779 81.8073267,9.26057779 C78.8405941,9.26057779 76.4358416,11.6665184 76.4358416,14.6308748 C76.4358416,17.5952313 78.8405941,20.0011719 81.8073267,20.0011719 Z" id="Path" stroke="#AAB2C5" stroke-width="2" fill="#FFFFFF" fill-rule="nonzero"></path>
                    <path d="M98.1356436,8.01305304 C98.1516832,8.33978572 97.9021782,8.61305304 97.5784158,8.63087482 L94.3716832,8.78533027 C94.0479208,8.80315205 93.7722772,8.5536471 93.7562376,8.23285502 C93.740198,7.90612235 93.989703,7.63285502 94.3134653,7.61503324 L97.520198,7.4546372 C97.8439604,7.44275601 98.119604,7.69226096 98.1356436,8.01305304 Z" id="Path" fill="#AAB2C5"></path>
                    <path d="M96.4081188,4.42493423 C96.5613861,4.71008274 96.4538614,5.06651839 96.1681188,5.22097383 L94.5481188,6.08830057 C94.2623762,6.24275601 93.9065347,6.13582532 93.7526733,5.8506768 C93.5994059,5.56552829 93.7069307,5.20909265 93.9926733,5.0546372 L95.6126733,4.18731047 C95.8984158,4.03285502 96.2542574,4.13978572 96.4081188,4.42493423 Z" id="Path" fill="#AAB2C5"></path>
                    <path d="M91.8314851,5.19127086 C91.520198,5.10216195 91.3419802,4.77542928 91.4334653,4.46651839 L92.6239604,0.420973834 C92.7154455,0.112062943 93.0415842,-0.0661548789 93.3528713,0.022954032 C93.6641584,0.112062943 93.8423762,0.438795616 93.7508911,0.753647101 L92.560396,4.79919166 C92.4689109,5.10810255 92.1421782,5.28632037 91.8314851,5.19127086 Z" id="Path" fill="#AAB2C5"></path>
                    <polyline id="Path" stroke="#AAB2C5" stroke-width="2" stroke-linecap="round" stroke-linejoin="round" points="81.8851485 11.5001818 81.8851485 14.6308748 83.4516832 14.6308748"></polyline>
                </g>
            </g>
        </g>
    </g>
</svg>