<svg width="16" height="16" viewBox="0 0 16 16" fill="none" xmlns="http://www.w3.org/2000/svg">
<path fill-rule="evenodd" clip-rule="evenodd" d="M13.5186 0.45125C14.5808 0.471188 15.5323 1.38969 15.5522 2.48488C15.5749 6.15613 15.5529 9.82737 15.5529 13.4986C15.546 14.5402 14.675 15.4999 13.5949 15.5536C13.5695 15.5549 13.544 15.5556 13.5186 15.5556C9.84733 15.5783 6.17608 15.5563 2.50551 15.5563C1.46601 15.5494 0.503515 14.6784 0.44989 13.5983C0.448515 13.5729 0.447827 13.5474 0.447827 13.522C0.42514 9.85075 0.447827 6.1795 0.447827 2.50894C0.454015 1.46944 1.32508 0.506938 2.40514 0.453313C2.43058 0.451938 2.45601 0.451938 2.48145 0.45125C6.16026 0.428563 9.83976 0.428563 13.5186 0.45125ZM2.50964 1.82419C2.15145 1.82625 1.82764 2.13081 1.82076 2.50206C1.79808 6.16988 1.79808 9.83769 1.82076 13.5048C1.82764 13.8596 2.13358 14.1758 2.49864 14.1827C6.16645 14.2054 9.83358 14.2054 13.5014 14.1827C13.8548 14.1765 14.1724 13.8761 14.1793 13.5048C14.202 9.83769 14.202 6.16988 14.1793 2.50206C14.1731 2.14869 13.8726 1.83106 13.5014 1.82419C9.8377 1.8015 6.17333 1.82419 2.50964 1.82419ZM4.76808 5.74294C4.41745 5.37169 4.61752 4.63812 5.17714 4.57487C5.2507 4.56663 5.26858 4.57075 5.29195 4.57144C5.4597 4.58588 5.61645 4.65531 5.73952 4.7715L8.00002 7.03269L10.2612 4.7715C10.4021 4.63812 10.5843 4.56594 10.7851 4.57144C10.9418 4.58519 10.9927 4.60856 11.0786 4.656C11.4334 4.85262 11.5482 5.39025 11.2581 5.71475C11.2498 5.72438 11.2409 5.73331 11.232 5.74294L8.97077 8.00344L11.232 10.2646C11.5908 10.6441 11.3626 11.4031 10.7851 11.4354C10.618 11.4451 10.4489 11.3907 10.3183 11.2869C10.2915 11.2656 10.286 11.2587 10.2612 11.2354L8.00002 8.97419L5.73952 11.2354C5.36002 11.5942 4.60033 11.3626 4.56802 10.7885C4.55908 10.6214 4.6127 10.4523 4.7172 10.3217C4.73852 10.2949 4.7447 10.2894 4.76808 10.2646L7.02926 8.00344L4.76808 5.74294Z" fill="#979EAB"/>
</svg>
