<?xml version="1.0" encoding="UTF-8"?>
<svg width="19px" height="22px" viewBox="0 0 19 22" version="1.1" xmlns="http://www.w3.org/2000/svg" xmlns:xlink="http://www.w3.org/1999/xlink">
    <title>4C1132DF-8927-4A82-8C5E-CB4EC234145D</title>
    <g id="Page-1" stroke="none" stroke-width="1" fill="none" fill-rule="evenodd">
        <g id="HL-dashboard---lead---add-disbursement---added" transform="translate(-1004.000000, -244.000000)">
            <g id="All-Files-Copy-4" transform="translate(980.000000, 58.000000)">
                <g id="Files" transform="translate(24.000000, 110.000000)">
                    <g id="File-pdf" transform="translate(0.250000, 76.250000)">
                        <path d="M15.535083,21.604151 L2.28266205,21.604151 C1.0215751,21.604151 0,20.5825759 0,19.321489 L0,2.28266205 C0,1.0215751 1.0215751,0 2.28266205,0 L10.3718909,0 C10.7506244,0 11.113846,0.150451311 11.3816511,0.418256361 L17.3994887,6.43609394 C17.6672937,6.70389899 17.817745,7.06712058 17.817745,7.44585412 L17.817745,19.321489 C17.817745,20.5822792 16.7955202,21.604151 15.535083,21.604151 Z" id="Shape" fill="#F33A3A"></path>
                        <path d="M15.535083,20.8252329 C16.3653958,20.8252329 17.0388269,20.1520343 17.0388269,19.321489 L17.0388269,7.44585412 C17.0388269,7.27370251 16.9704399,7.10860178 16.8487104,6.98687222 L10.8308728,0.969034641 C10.7091432,0.847305072 10.5440425,0.778918113 10.3718909,0.778918113 L2.28266205,0.778918113 C1.45175969,0.778918113 0.778918113,1.45175969 0.778918113,2.28266205 L0.778918113,19.321489 C0.778918113,20.1523913 1.45175969,20.8252329 2.28266205,20.8252329 L15.535083,20.8252329 Z" id="Path" fill="#FFFFFF" fill-rule="nonzero"></path>
                        <path d="M15.535083,20.8252329 C16.3653958,20.8252329 17.0388269,20.1520343 17.0388269,19.321489 L17.0388269,7.44585412 C17.0388269,7.27370251 16.9704399,7.10860178 16.8487104,6.98687222 L10.8308728,0.969034641 C10.7091432,0.847305072 10.5440425,0.778918113 10.3718909,0.778918113 L2.28266205,0.778918113 C1.45175969,0.778918113 0.778918113,1.45175969 0.778918113,2.28266205 L0.778918113,19.321489 C0.778918113,20.1523913 1.45175969,20.8252329 2.28266205,20.8252329 L15.535083,20.8252329 Z" id="Path" fill-opacity="0.09" fill="#F33A3A"></path>
                        <path d="M12.4442709,13.0449642 C11.3087743,13.0449642 10.7334483,13.2448527 10.4645297,13.3908666 C9.86257595,12.7939594 9.27071533,11.9212534 8.80957214,11.0243645 C9.3134232,9.25446394 9.25373405,8.09860859 8.60738758,7.7487253 C8.23546859,7.54639185 7.76758618,7.69699 7.49545474,8.10595121 C7.41847085,8.22135651 7.18414175,8.57276005 7.62600762,9.86054746 C7.75227404,10.2284856 7.92828534,10.648159 8.14286695,11.083748 C7.96012426,11.6791272 7.69993534,12.3902094 7.33796063,13.2350573 C7.08771599,13.8187995 6.85278349,14.312244 6.63513789,14.7285478 C5.76350542,15.0952635 4.9937998,15.4999382 4.6553967,15.8868481 C4.31225263,16.2789691 4.19241198,16.7815977 4.35709982,17.1378989 C4.46147943,17.3634983 4.67101446,17.4972641 4.91911195,17.4972641 C4.92232484,17.4972641 4.92569445,17.4972641 4.92890733,17.4972641 C5.54004528,17.4883856 6.28449448,16.6946538 7.08113349,15.2244294 C8.21219476,14.7680271 9.53977494,14.3486593 10.3367196,14.1187734 C10.6530791,14.3866184 10.9783172,14.5892575 11.3033986,14.6976179 C12.3525783,15.0471878 13.0755952,14.7876101 13.4028237,14.4282448 C13.6290344,14.1793794 13.6916308,13.8671496 13.5702621,13.5925732 C13.4974236,13.4279089 13.2419835,13.0449642 12.4442709,13.0449642 L12.4442709,13.0449642 Z M4.92936968,16.8804762 C4.89478022,16.8345633 4.88850333,16.5722272 5.12711106,16.2994845 C5.30251113,16.0992904 5.65376577,15.8798111 6.10159507,15.6578869 C5.4474593,16.6818101 5.02961956,16.8994479 4.92936968,16.8804762 Z M8.01706287,8.45370303 C8.08471371,8.35237957 8.18236193,8.28779273 8.25796663,8.28779273 C8.27648382,8.28779273 8.29377855,8.29177357 8.30877725,8.29972742 C8.47086343,8.38758027 8.66064312,8.87643263 8.3952509,10.1253441 C8.34948686,10.0130028 8.3066301,9.90157837 8.26653171,9.79168983 C7.94114472,8.89755931 7.97849256,8.51645618 8.01706287,8.45370303 L8.01706287,8.45370303 Z M7.50678604,14.3845026 C7.64162538,14.1016589 7.77753829,13.8004548 7.91406244,13.4817991 C8.16400147,12.8989738 8.37613031,12.3525716 8.5504568,11.8456644 C8.91794044,12.4814475 9.35199351,13.1071296 9.81942141,13.6171008 C9.25449417,13.7857617 8.38316731,14.0584965 7.50678604,14.3845026 Z M12.9390867,14.0061578 C12.7390493,14.2262484 12.2171356,14.3413402 11.5017669,14.1031948 C11.3392262,14.0490146 11.1720934,13.9608561 11.0028135,13.8448396 C11.2607064,13.7618844 11.709766,13.6718923 12.4442631,13.6718923 C12.8204685,13.6718923 12.9703066,13.7857617 12.9969344,13.8460699 C13.0235621,13.9063781 12.9592887,13.9841143 12.9390867,14.0061578 L12.9390867,14.0061578 Z" id="Shape" fill="#F33A3A" fill-rule="nonzero"></path>
                    </g>
                </g>
            </g>
        </g>
    </g>
</svg>