<?xml version="1.0" encoding="UTF-8"?>
<svg width="9px" height="11px" viewBox="0 0 9 11" version="1.1" xmlns="http://www.w3.org/2000/svg" xmlns:xlink="http://www.w3.org/1999/xlink">
    <title>96233303-99B9-4E27-B956-F047CF12D407</title>
    <g id="Page-1" stroke="none" stroke-width="1" fill="none" fill-rule="evenodd">
        <g id="HL-dashboard---lead---timeline" transform="translate(-731.000000, -116.000000)" fill="#334150" fill-rule="nonzero">
            <g id="Group-4" transform="translate(157.000000, 100.000000)">
                <g id="Group-10" transform="translate(457.000000, 9.000000)">
                    <g id="Group" transform="translate(109.000000, 0.000000)">
                        <g id="2411329" transform="translate(8.000000, 7.000000)">
                            <path d="M7.85857864,10.1260477 L7.55269535,10.1260477 L7.55269535,8.12163826 C7.55098796,7.04628814 6.98473305,6.05082098 6.06129583,5.49978151 C6.98473305,4.94874205 7.55098796,3.95327488 7.55269535,2.87792476 L7.55269535,0.87395225 L7.85857864,0.87395225 C8.09991389,0.87395225 8.29555476,0.678311375 8.29555476,0.436976125 C8.29555476,0.195640875 8.09991389,-3.88112764e-16 7.85857864,-3.88112764e-16 L0.436976125,-3.88112764e-16 C0.195640875,-3.88112764e-16 3.88112764e-16,0.195640875 3.88112764e-16,0.436976125 C3.88112764e-16,0.678311375 0.195640875,0.87395225 0.436976125,0.87395225 L0.742859413,0.87395225 L0.742859413,2.87792476 C0.744566799,3.95327488 1.31082171,4.94874205 2.23425893,5.49978151 C1.31082171,6.05082098 0.744566799,7.04628814 0.742859413,8.12163826 L0.742859413,10.1260477 L0.436976125,10.1260477 C0.195640875,10.1260477 3.88112764e-16,10.3216886 3.88112764e-16,10.5630239 C3.88112764e-16,10.8043591 0.195640875,11 0.436976125,11 L7.85857864,11 C8.09991389,11 8.29555476,10.8043591 8.29555476,10.5630239 C8.29555476,10.3216886 8.09991389,10.1260477 7.85857864,10.1260477 L7.85857864,10.1260477 Z M1.61637469,9.9512573 C2.10753585,9.4478608 3.24935447,8.46816033 4.14777738,8.46816033 C5.04620029,8.46816033 6.18801891,9.4478608 6.67918007,9.9512573 L6.67918007,10.1260477 L1.61637469,10.1260477 L1.61637469,9.9512573 Z M6.67918007,0.87395225 L6.67918007,2.11321654 L1.61637469,2.11321654 L1.61637469,0.87395225 L6.67918007,0.87395225 Z M1.62729909,2.98716879 L6.66825567,2.98716879 C6.61128161,4.14719131 5.65571633,5.059348 4.49429945,5.06236841 L3.80125531,5.06236841 C2.63983844,5.059348 1.68427316,4.14719131 1.62729909,2.98716879 L1.62729909,2.98716879 Z M3.80125531,5.93632066 L4.49429945,5.93632066 C5.70037678,5.93776535 6.67773538,6.91512396 6.67918007,8.12120129 L6.67918007,8.76792595 C6.03595122,8.2326302 5.07635165,7.5937711 4.14777738,7.5937711 C3.21920311,7.5937711 2.25960354,8.2326302 1.61637469,8.76792595 L1.61637469,8.12163826 C1.61781938,6.91556093 2.59517798,5.93820233 3.80125531,5.93675764 L3.80125531,5.93632066 Z" id="Shape"></path>
                        </g>
                    </g>
                </g>
            </g>
        </g>
    </g>
</svg>