<?xml version="1.0" encoding="UTF-8"?>
<svg width="35px" height="42px" viewBox="0 0 35 42" version="1.1" xmlns="http://www.w3.org/2000/svg" xmlns:xlink="http://www.w3.org/1999/xlink">
    <title>09F9D87F-0BA1-4D8A-A802-B03A24FBB027</title>
    <g id="Page-1" stroke="none" stroke-width="1" fill="none" fill-rule="evenodd">
        <g id="HL-dashboard---lead---overview" transform="translate(-208.000000, -716.000000)" fill="#249AF3">
            <g id="Group-4" transform="translate(157.000000, 100.000000)">
                <g id="Files" transform="translate(31.000000, 604.000000)">
                    <g id="File-doc" transform="translate(20.000000, 12.000000)">
                        <path d="M30.166655,40.3541506 C31.7656283,40.3541506 33.0624869,39.0577398 33.0624869,37.4583188 L33.0624869,14.5888387 C33.0624869,14.2573181 32.9307908,13.9393757 32.6963704,13.7049552 L21.1075317,2.11611652 C20.8731112,1.88169605 20.5551688,1.75 20.2236482,1.75 L4.64583188,1.75 C3.04572333,1.75 1.75,3.04572333 1.75,4.64583188 L1.75,37.4583188 C1.75,39.0584273 3.04572333,40.3541506 4.64583188,40.3541506 L30.166655,40.3541506 Z M30.166655,41.8541506 L4.64583187,41.8541506 C2.2172962,41.8541506 0.25,39.8868544 0.25,37.4583188 L0.25,4.64583188 C0.25,2.2172962 2.2172962,0.25 4.64583187,0.25 L20.2236482,0.25 C20.9529935,0.25 21.6524668,0.539731311 22.1681918,1.05545635 L33.7570305,12.644295 C34.2727556,13.1600201 34.5624869,13.8594933 34.5624869,14.5888387 L34.5624869,37.4583188 C34.5624869,39.886283 32.5939395,41.8541506 30.166655,41.8541506 Z" id="Shape" fill-rule="nonzero"></path>
                        <path d="M30.166655,41.8541506 L4.64583187,41.8541506 C2.2172962,41.8541506 0.25,39.8868544 0.25,37.4583188 L0.25,4.64583188 C0.25,2.2172962 2.2172962,0.25 4.64583187,0.25 L20.2236482,0.25 C20.9529935,0.25 21.6524668,0.539731311 22.1681918,1.05545635 L33.7570305,12.644295 C34.2727556,13.1600201 34.5624869,13.8594933 34.5624869,14.5888387 L34.5624869,37.4583188 C34.5624869,39.886283 32.5939395,41.8541506 30.166655,41.8541506 Z" id="Path" fill-opacity="0.09"></path>
                        <path d="M8,26.9 C8,26.4029437 8.40294373,26 8.9,26 L26.8507701,26 C27.3478264,26 27.7507701,26.4029437 27.7507701,26.9 C27.7507701,27.3970563 27.3478264,27.8 26.8507701,27.8 L8.9,27.8 C8.40294373,27.8 8,27.3970563 8,26.9 Z M8,32.9 C8,32.4029437 8.40294373,32 8.9,32 L26.8507701,32 C27.3478264,32 27.7507701,32.4029437 27.7507701,32.9 C27.7507701,33.3970563 27.3478264,33.8 26.8507701,33.8 L8.9,33.8 C8.40294373,33.8 8,33.3970563 8,32.9 Z M8,20.9 C8,20.4029437 8.40294373,20 8.9,20 L26.8507701,20 C27.3478264,20 27.7507701,20.4029437 27.7507701,20.9 C27.7507701,21.3970563 27.3478264,21.8 26.8507701,21.8 L8.9,21.8 C8.40294373,21.8 8,21.3970563 8,20.9 Z" id="Shape" fill-rule="nonzero"></path>
                    </g>
                </g>
            </g>
        </g>
    </g>
</svg>