<svg width="16"  height="16" viewBox="0 0 16 16" fill="none" xmlns="http://www.w3.org/2000/svg">
<path fill-rule="evenodd" clip-rule="evenodd" d="M3.20339 7.50547L5.35339 5.35547L5.37639 5.33047C5.39589 5.30697 5.40139 5.30147 5.41789 5.27597C5.57339 5.03897 5.47389 4.67297 5.21439 4.54947C5.16289 4.52497 5.10689 4.50897 5.05039 4.50347C4.98489 4.49647 4.96889 4.50197 4.94789 4.50347C4.85689 4.51597 4.76889 4.54747 4.69639 4.60247C4.67239 4.62097 4.66739 4.62647 4.64489 4.64747L1.64039 7.65197C1.61939 7.67447 1.61389 7.67947 1.59539 7.70347C1.46489 7.87547 1.46189 8.13297 1.59539 8.30897C1.61389 8.33297 1.61939 8.33797 1.64039 8.36047L4.64489 11.365C4.66739 11.386 4.67239 11.3915 4.69639 11.41C4.96389 11.6125 5.42989 11.4585 5.49239 11.096C5.51589 10.9615 5.48089 10.8175 5.39839 10.7085C5.37989 10.684 5.37389 10.679 5.35339 10.657L3.20339 8.50697H14.0134C14.0534 8.50197 14.0939 8.50197 14.1329 8.49247C14.4789 8.40697 14.6494 7.90097 14.3454 7.63147C14.2844 7.57747 14.2119 7.53947 14.1329 7.51997C14.0939 7.51047 14.0534 7.51047 14.0134 7.50547H3.20339Z" fill='#6161FF'/>
</svg>
