<svg width="16" height="16" viewBox="0 0 16 16" fill="#979EAB" xmlns="http://www.w3.org/2000/svg">
<path fill-rule="evenodd" clip-rule="evenodd" d="M14.9261 9.92328C15.6183 8.90144 15.9886 7.69576 15.9894 6.46156C15.8892 2.80458 12.8513 -0.0831889 9.19393 0.00183009C6.73499 -0.029681 4.44732 1.25751 3.19789 3.3756C1.2358 4.5083 0.0193627 6.59449 0 8.85998C0.000811138 10.0942 0.371147 11.2999 1.0633 12.3217L0.055963 14.904C-0.0429666 15.1782 0.0152421 15.4846 0.207863 15.7035C0.354624 15.8799 0.570104 15.9847 0.799472 15.9913C0.870954 16.0029 0.943848 16.0029 1.01533 15.9913L4.58097 14.9999C5.29492 15.2385 6.04276 15.36 6.79551 15.3597C8.88788 15.3656 10.8699 14.4216 12.184 12.7934L14.9741 13.5929C15.0456 13.6045 15.1185 13.6045 15.19 13.5929C15.4156 13.5923 15.6304 13.4965 15.7816 13.329C15.9742 13.1102 16.0324 12.8038 15.9335 12.5296L14.9261 9.92328ZM11.4804 10.9466H11.3845C11.2883 10.945 11.1929 10.9641 11.1047 11.0026C10.4926 11.2276 9.846 11.3439 9.19393 11.3463C6.41038 11.4316 4.08432 9.24506 3.99736 6.46156C3.99815 5.79887 4.14272 5.14423 4.42108 4.54283C4.82706 3.65957 5.48301 2.91467 6.30783 2.40025C7.175 1.8664 8.17568 1.5892 9.19393 1.60077C11.9684 1.51539 14.2906 3.68755 14.3905 6.46156C14.3881 7.37792 14.1095 8.27227 13.591 9.02787C13.5697 9.05985 13.5493 9.09272 13.5288 9.12559C13.488 9.19132 13.4471 9.25705 13.3992 9.31568C13.2202 9.54238 13.1774 9.84801 13.2872 10.1152L13.3992 10.403L13.8708 11.6102L13.0714 11.3863L11.6083 10.9786L11.4804 10.9466ZM4.88477 13.385C5.49679 13.61 6.14344 13.7264 6.79551 13.7288C7.82813 13.7313 8.84018 13.4402 9.71358 12.8893C9.5377 12.9293 9.36981 12.9293 9.19393 12.9293C5.53352 13.0143 2.49436 10.1217 2.39842 6.46156V6.26969C1.25212 7.93142 1.3334 10.1487 2.59828 11.7221C2.77728 11.9488 2.82006 12.2544 2.71021 12.5216L2.1266 14.0166L4.3971 13.385C4.55492 13.3295 4.72694 13.3295 4.88477 13.385Z" fill="#979EAB"/>
</svg>
