<svg width="24" height="24" viewBox="0 0 24 24" fill="none" xmlns="http://www.w3.org/2000/svg">
<circle cx="12" cy="12" r="12" fill="#E1E8EE"/>
<path fill-rule="evenodd" clip-rule="evenodd" d="M5.9932 9.79238C6.91927 7.27237 9.31975 5.59825 12.0045 5.59999C14.2826 5.59614 16.3905 6.8049 17.5378 8.77294C18.685 10.741 18.6983 13.1709 17.5725 15.1513L18.3712 17.5577C18.4362 17.7527 18.4035 17.9671 18.2833 18.134C18.1631 18.3008 17.9701 18.3997 17.7645 18.3999C17.6959 18.4006 17.6276 18.3905 17.5622 18.3698L15.1559 17.5679C12.8201 18.8916 9.90643 18.6168 7.85939 16.8797C5.81234 15.1425 5.06712 12.3124 5.9932 9.79238ZM16.7526 16.7493L16.2624 15.2774C16.2009 15.0945 16.2251 14.8937 16.3283 14.7308C17.727 12.5207 17.2402 9.61225 15.1979 7.97818C13.1556 6.34411 10.2112 6.50707 8.36176 8.35654C6.51229 10.206 6.34933 13.1504 7.98341 15.1927C9.61748 17.2349 12.5259 17.7218 14.736 16.3231C14.8986 16.2206 15.0988 16.1971 15.2807 16.2591L16.7526 16.7493Z" fill="black"/>
<path fill-rule="evenodd" clip-rule="evenodd" d="M9.44468 9.75995H14.5646C14.9181 9.75995 15.2046 10.0465 15.2046 10.3999C15.2046 10.7534 14.9181 11.0399 14.5646 11.0399H9.44468C9.09122 11.0399 8.80469 10.7534 8.80469 10.3999C8.80469 10.0465 9.09122 9.75995 9.44468 9.75995ZM9.44468 12.9599H12.0047C12.3581 12.9599 12.6447 13.2465 12.6447 13.5999C12.6447 13.9534 12.3581 14.2399 12.0047 14.2399H9.44468C9.09122 14.2399 8.80469 13.9534 8.80469 13.5999C8.80469 13.2465 9.09122 12.9599 9.44468 12.9599Z" fill="black"/>
</svg>
