<svg width="17" height="16" viewBox="0 0 17 16" fill="none" xmlns="http://www.w3.org/2000/svg">
<path fill-rule="evenodd" clip-rule="evenodd" d="M8.00534 2.40172e-06C5.88807 -0.00136831 3.85728 0.839795 2.36109 2.33787L2.35576 2.34214L2.35309 2.3464C-0.774449 5.45996 -0.785785 10.5194 2.32777 13.6469C5.44133 16.7744 10.5007 16.7858 13.6283 13.6722C13.655 13.6613 13.6762 13.6399 13.6869 13.6131C15.9575 11.3215 16.6272 7.88935 15.3847 4.9123C14.1422 1.93526 11.2313 -0.00249011 8.00534 2.40172e-06ZM8.00534 15.4579C5.0348 15.4624 2.34542 13.7019 1.16114 10.9776C-0.0231394 8.25333 0.52398 5.08588 2.55351 2.91674L4.21923 4.58086C3.9173 4.8308 3.74163 5.20167 3.7395 5.59362V11.457C3.7395 12.1929 4.33612 12.7895 5.07208 12.7895H8.80329C9.43642 12.7894 9.98205 12.3438 10.1087 11.7235H10.9354C11.0608 11.7234 11.1856 11.7055 11.3059 11.6702L13.0846 13.4489C11.7082 14.7394 9.89215 15.4577 8.00534 15.4579ZM10.1375 5.59682V9.74646L11.4167 11.0279C11.6169 10.8785 11.7353 10.6438 11.7366 10.3941V4.53076C11.7366 4.08918 11.3786 3.73121 10.937 3.73121H7.2058C6.86818 3.73261 6.56783 3.94593 6.45529 4.26424H8.80489C9.54085 4.26424 10.1375 4.86086 10.1375 5.59682ZM10.8304 11.1936H10.1375V10.5007L10.8304 11.1936ZM9.60443 5.59682C9.60443 5.15524 9.24646 4.79727 8.80489 4.79727H5.18775L6.25381 5.86333H8.27239C8.41958 5.86333 8.53891 5.98266 8.53891 6.12985C8.53891 6.27704 8.41958 6.39636 8.27239 6.39636H6.78737L7.85343 7.46242H8.27239C8.39927 7.46449 8.5071 7.55572 8.53014 7.68051C8.55319 7.8053 8.48505 7.92903 8.36727 7.97627L9.60443 9.21396V5.59682ZM5.51822 5.88146C5.39997 5.92729 5.33038 6.0501 5.35186 6.1751C5.37334 6.3001 5.47993 6.39264 5.60671 6.39636H6.03313L7.09919 7.46242H5.60671C5.45951 7.46242 5.34019 7.58175 5.34019 7.72894C5.34019 7.87613 5.45951 7.99545 5.60671 7.99545H7.63222L9.60443 9.96767V11.4602C9.60443 11.9017 9.24646 12.2597 8.80489 12.2597H5.07368C4.6321 12.2597 4.27413 11.9017 4.27413 11.4602V5.59682C4.27363 5.34504 4.39222 5.10785 4.59395 4.95718L5.51822 5.88146ZM11.7957 11.4036L13.4604 13.0704L13.4614 13.0699C16.2101 10.136 16.1352 5.55057 13.2923 2.70796C10.4494 -0.134645 5.86395 -0.209022 2.93036 2.53989L4.71122 4.31755C4.8288 4.28188 4.95081 4.26286 5.07368 4.26105H5.90041C6.02703 3.64071 6.57267 3.19511 7.2058 3.19499H10.937C11.673 3.19499 12.2696 3.7916 12.2696 4.52756V10.3909C12.2689 10.7819 12.0955 11.1526 11.7957 11.4036ZM5.60617 9.59508H8.27132C8.41852 9.59508 8.53784 9.47575 8.53784 9.32856C8.53784 9.18137 8.41852 9.06205 8.27132 9.06205H5.60617C5.45898 9.06205 5.33966 9.18137 5.33966 9.32856C5.33966 9.47575 5.45898 9.59508 5.60617 9.59508ZM8.27132 11.1942H5.60617C5.45898 11.1942 5.33966 11.0748 5.33966 10.9277C5.33966 10.7805 5.45898 10.6611 5.60617 10.6611H8.27132C8.41852 10.6611 8.53784 10.7805 8.53784 10.9277C8.53784 11.0748 8.41852 11.1942 8.27132 11.1942Z" fill="#979EAB"/>
</svg>
