<?xml version="1.0" encoding="UTF-8"?>
<svg width="16px" height="16px" viewBox="0 0 16 16" version="1.1" xmlns="http://www.w3.org/2000/svg" xmlns:xlink="http://www.w3.org/1999/xlink">
    <title>D3016037-8D3D-46AB-9BC8-543251EBFEFF</title>
    <g id="Page-1" stroke="none" stroke-width="1" fill="none" fill-rule="evenodd">
        <g id="HL-dashboard---lead---timeline" transform="translate(-768.000000, -631.000000)" fill="#7F8FA4">
            <g id="Group-4" transform="translate(157.000000, 100.000000)">
                <g id="Group-3" transform="translate(20.000000, 291.000000)">
                    <g id="Group-2" transform="translate(17.000000, 17.000000)">
                        <g id="Widgets/Dropdown-Copy" transform="translate(561.000000, 212.000000)">
                            <g id="Section" transform="translate(13.000000, 4.000000)">
                                <g id="Icon" transform="translate(0.700000, 7.000000)">
                                    <path d="M12.2269451,8.70414851e-14 C13.4521037,8.70414851e-14 14.449578,0.997474281 14.449578,2.22361855 L14.449578,13.7773671 C14.449578,15.0025257 13.4521037,16 12.2269451,16 L2.22263291,16 C0.997474281,16 -7.28306304e-14,15.0025257 -7.28306304e-14,13.7773671 L-7.28306304e-14,2.22361855 C-7.28306304e-14,0.997474281 0.997474281,8.70414851e-14 2.22263291,8.70414851e-14 Z M12.2269451,1.47846978 L2.22263291,1.47846978 C1.81260395,1.47846978 1.47846978,1.81260395 1.47846978,2.22361855 L1.47846978,13.7773671 C1.47846978,14.187396 1.81260395,14.5215302 2.22263291,14.5215302 L12.2269451,14.5215302 C12.6369741,14.5215302 12.9711082,14.187396 12.9711082,13.7773671 L12.9711082,2.22361855 C12.9711082,1.81260395 12.6369741,1.47846978 12.2269451,1.47846978 Z M9.9245734,10.8810448 C10.3326311,10.8810448 10.6638083,11.212222 10.6638083,11.6202797 C10.6638083,12.0283373 10.3326311,12.3595146 9.9245734,12.3595146 L4.40692417,12.3595146 C3.99886651,12.3595146 3.66768927,12.0283373 3.66768927,11.6202797 C3.66768927,11.212222 3.99886651,10.8810448 4.40692417,10.8810448 Z M9.9245734,7.47948007 C10.3326311,7.47948007 10.6638083,7.80967166 10.6638083,8.21871496 C10.6638083,8.62677262 10.3326311,8.95794986 9.9245734,8.95794986 L4.40692417,8.95794986 C3.99886651,8.95794986 3.66768927,8.62677262 3.66768927,8.21871496 C3.66768927,7.80967166 3.99886651,7.47948007 4.40692417,7.47948007 Z M9.9245734,4.03257562 C10.3326311,4.03257562 10.6638083,4.36375285 10.6638083,4.77181051 C10.6638083,5.17986817 10.3326311,5.5110454 9.9245734,5.5110454 L4.40692417,5.5110454 C3.99886651,5.5110454 3.66768927,5.17986817 3.66768927,4.77181051 C3.66768927,4.36375285 3.99886651,4.03257562 4.40692417,4.03257562 Z" id="Content"></path>
                                </g>
                            </g>
                        </g>
                    </g>
                </g>
            </g>
        </g>
    </g>
</svg>