<?xml version="1.0" encoding="UTF-8"?>
<svg width="35px" height="42px" viewBox="0 0 35 42" version="1.1" xmlns="http://www.w3.org/2000/svg" xmlns:xlink="http://www.w3.org/1999/xlink">
    <title>DA778315-0C49-4195-AD34-7245680DBFF1</title>
    <g id="Page-1" stroke="none" stroke-width="1" fill="none" fill-rule="evenodd">
        <g id="HL-dashboard---lead---overview" transform="translate(-208.000000, -796.000000)">
            <g id="Group-4" transform="translate(157.000000, 100.000000)">
                <g id="Files" transform="translate(31.000000, 604.000000)">
                    <g id="File" transform="translate(0.000000, 80.000000)">
                        <g id="Left-Side" transform="translate(20.000000, 12.000000)">
                            <g id="File-pdf" transform="translate(0.250000, 0.250000)">
                                <path d="M29.916655,41.6041506 L4.39583187,41.6041506 C1.9672962,41.6041506 0,39.6368544 0,37.2083188 L0,4.39583188 C0,1.9672962 1.9672962,0 4.39583187,0 L19.9736482,0 C20.7029935,0 21.4024668,0.289731311 21.9181918,0.805456352 L33.5070305,12.394295 C34.0227556,12.9100201 34.3124869,13.6094933 34.3124869,14.3388387 L34.3124869,37.2083188 C34.3124869,39.636283 32.3439395,41.6041506 29.916655,41.6041506 Z" id="Shape" fill="#F33A3A"></path>
                                <path d="M29.916655,40.1041506 C31.5156283,40.1041506 32.8124869,38.8077398 32.8124869,37.2083188 L32.8124869,14.3388387 C32.8124869,14.0073181 32.6807908,13.6893757 32.4463704,13.4549552 L20.8575317,1.86611652 C20.6231112,1.63169605 20.3051688,1.5 19.9736482,1.5 L4.39583187,1.5 C2.79572333,1.5 1.5,2.79572333 1.5,4.39583188 L1.5,37.2083188 C1.5,38.8084273 2.79572333,40.1041506 4.39583187,40.1041506 L29.916655,40.1041506 Z" id="Path" fill="#FFFFFF" fill-rule="nonzero"></path>
                                <path d="M29.916655,40.1041506 C31.5156283,40.1041506 32.8124869,38.8077398 32.8124869,37.2083188 L32.8124869,14.3388387 C32.8124869,14.0073181 32.6807908,13.6893757 32.4463704,13.4549552 L20.8575317,1.86611652 C20.6231112,1.63169605 20.3051688,1.5 19.9736482,1.5 L4.39583187,1.5 C2.79572333,1.5 1.5,2.79572333 1.5,4.39583188 L1.5,37.2083188 C1.5,38.8084273 2.79572333,40.1041506 4.39583187,40.1041506 L29.916655,40.1041506 Z" id="Path" fill-opacity="0.09" fill="#F33A3A"></path>
                                <path d="M23.9645299,25.1213137 C21.7778496,25.1213137 20.6699166,25.5062487 20.1520472,25.7874347 C18.9928359,24.6379418 17.8530615,22.9573299 16.965016,21.2301479 C17.9353061,17.8217654 17.8203599,15.5958793 16.5756594,14.9220923 C15.8594372,14.532449 14.9584136,14.8224631 14.434357,15.6100194 C14.2861054,15.8322609 13.8348466,16.5089755 14.6857689,18.9889296 C14.9289262,19.6974857 15.2678797,20.505671 15.6811098,21.3445056 C15.3291934,22.4910558 14.8281351,23.8604209 14.131063,25.4873852 C13.6491549,26.6115256 13.1967341,27.5617753 12.7776035,28.3634715 C11.099059,29.0696735 9.61679998,29.8489751 8.96512089,30.594066 C8.30431189,31.3491922 8.073529,32.3171282 8.39067627,33.0032746 C8.59168511,33.4377223 8.99519676,33.6953214 9.47297001,33.6953214 C9.47915722,33.6953214 9.48564624,33.6953214 9.49183345,33.6953214 C10.6687311,33.6782236 12.1023527,32.1496963 13.6364787,29.3184144 C15.8146176,28.4394988 18.3712025,27.631902 19.9059171,27.1891997 C20.5151459,27.7050016 21.1414725,28.0952334 21.7674973,28.3039083 C23.787953,28.9770918 25.1803013,28.4772105 25.810461,27.7851637 C26.2460858,27.3059115 26.3666307,26.7046356 26.1329051,26.1758707 C25.9926366,25.8587687 25.5007233,25.1213137 23.9645299,25.1213137 L23.9645299,25.1213137 Z M9.49272381,32.5075433 C9.42611322,32.4191266 9.41402553,31.9139334 9.87352388,31.3886998 C10.2113002,31.0031763 10.8877281,30.5805145 11.7501345,30.1531443 C10.4904339,32.1249625 9.68577981,32.544078 9.49272381,32.5075433 Z M15.4388428,16.2797017 C15.5691213,16.0845783 15.7571671,15.9602003 15.9027627,15.9602003 C15.9384222,15.9602003 15.9717275,15.9678664 16.0006112,15.9831835 C16.3127483,16.1523659 16.6782162,17.0937724 16.1671376,19.4988612 C16.0790076,19.2825202 15.9964763,19.0679448 15.9192569,18.8563271 C15.2926436,17.1344571 15.3645661,16.4005485 15.4388428,16.2797017 L15.4388428,16.2797017 Z M14.4561782,27.7009271 C14.7158448,27.1562415 14.9775788,26.5761982 15.2404899,25.9625478 C15.7218095,24.840173 16.1303162,23.78794 16.4660251,22.8117645 C17.173706,24.0361226 18.0095828,25.2410287 18.9097312,26.2231047 C17.8218237,26.547903 16.1438677,27.0731216 14.4561782,27.7009271 Z M24.9174204,26.9723304 C24.5321988,27.3961693 23.5271244,27.6178072 22.1495046,27.1591992 C21.8364922,27.0548618 21.5146366,26.8850908 21.1886462,26.6616722 C21.6852829,26.5019215 22.5500585,26.3286193 23.9645148,26.3286193 C24.6889917,26.3286193 24.977542,26.547903 25.0288204,26.6640414 C25.0800987,26.7801799 24.9563244,26.9298802 24.9174204,26.9723304 L24.9174204,26.9723304 Z" id="Shape" fill="#F33A3A" fill-rule="nonzero"></path>
                            </g>
                        </g>
                    </g>
                </g>
            </g>
        </g>
    </g>
</svg>