<svg width="14" height="14" viewBox="0 0 14 14" fill="none" xmlns="http://www.w3.org/2000/svg">
<path d="M3.01853 6.10738C4.0852 8.20371 5.80001 9.91851 7.90001 10.9852L9.52961 9.35185C9.73334 9.14811 10.0259 9.08885 10.2815 9.17038C11.1111 9.44445 12.0037 9.59258 12.9259 9.59258C13.3371 9.59258 13.6667 9.92218 13.6667 10.3333V12.9259C13.6667 13.337 13.3371 13.6666 12.9259 13.6666C5.97041 13.6666 0.333344 8.02958 0.333344 1.07405C0.333344 0.66294 0.666677 0.333313 1.07408 0.333313H3.66668C4.07779 0.333313 4.40742 0.66294 4.40742 1.07405C4.40742 1.99627 4.55556 2.88887 4.82964 3.7185C4.91112 3.97405 4.85186 4.26665 4.64816 4.47035L3.01853 6.10738Z" fill="#243443"/>
</svg>
