<svg width="12" height="12" viewBox="0 0 12 12" fill="none" xmlns="http://www.w3.org/2000/svg">
<path fill-rule="evenodd" clip-rule="evenodd" d="M7.71387 11.8495C4.83452 11.1279 0.876309 7.167 0.151427 4.28711C-0.144368 3.15273 -0.00363904 1.94865 0.545776 0.913055C0.796297 0.431245 1.26299 0.0990824 1.80027 0.0201795C2.33156 -0.0630839 2.87046 0.114318 3.2484 0.496889L4.38618 1.63412C4.87895 2.12756 5.01978 2.87218 4.74125 3.5115C4.61238 3.81007 4.42972 4.08241 4.20236 4.31493C4.10528 4.41147 4.0911 4.59091 4.15982 4.84781C4.71304 6.20835 5.79252 7.28764 7.15316 7.84061C7.41006 7.91043 7.58896 7.89515 7.68605 7.79861C7.91825 7.57152 8.19021 7.38904 8.48838 7.26027C9.12798 6.98108 9.87329 7.12196 10.3669 7.61535L11.5046 8.75312C11.8852 9.13531 12.0613 9.67568 11.979 10.2087C11.8968 10.7417 11.566 11.2039 11.0879 11.4536C10.4152 11.8114 9.6649 11.9986 8.90291 11.999C8.50193 11.9983 8.10256 11.9481 7.71387 11.8495ZM1.9639 1.09905C1.7709 1.12726 1.60314 1.24633 1.51283 1.41922C1.08476 2.21638 0.976138 3.14659 1.20902 4.02094C1.833 6.4983 5.50322 10.1685 7.98168 10.7854C8.85522 11.0186 9.7848 10.9102 10.5812 10.4821C10.7549 10.3925 10.8748 10.2249 10.9036 10.0316C10.933 9.84314 10.8701 9.652 10.7345 9.51782L9.59725 8.38059C9.4242 8.20535 9.16165 8.15367 8.93509 8.25023C8.75848 8.32524 8.59696 8.43169 8.45838 8.5644C8.03461 8.96521 7.42064 9.09193 6.87281 8.89166C5.40286 8.4984 3.50312 6.60084 3.10931 5.12817C2.90869 4.58249 3.03323 3.97031 3.43112 3.54641C3.56397 3.40702 3.67026 3.24454 3.74475 3.06697C3.84106 2.84057 3.78939 2.57831 3.61439 2.40536L2.47716 1.26813C2.36563 1.15535 2.2136 1.0919 2.05499 1.09196C2.02449 1.09188 1.99403 1.09425 1.9639 1.09905Z" fill="black"/>
</svg>
