<svg width="121" height="121" viewBox="0 0 121 121" fill="none" xmlns="http://www.w3.org/2000/svg">
<path d="M0 8C0 3.58172 3.58172 0 8 0H113C117.418 0 121 3.58172 121 8V121H0V8Z" fill="url(#paint0_linear_6_3)"/>
<rect x="29" y="32" width="60" height="60" rx="7" fill="url(#paint1_linear_6_3)"/>
<path d="M59 47C50.7158 47 44 53.7158 44 62C44 70.2842 50.7158 77 59 77C67.2842 77 74 70.2842 74 62C74 53.7158 67.2842 47 59 47ZM69.1542 68.7033L64.5725 71.3625C64.12 71.5892 63.6108 71.5892 63.2142 71.3625L58.6325 68.7033C58.18 68.4208 57.9533 67.9683 57.9533 67.5158V65.6491L60.1033 64.4041V66.2141C60.1033 66.7233 60.3858 67.1758 60.7816 67.4024L63.2141 68.8166C63.6674 69.0433 64.1758 69.0433 64.5724 68.8166L66.9482 67.4024C67.4007 67.1199 67.6265 66.6674 67.6265 66.2141V63.3858C67.6265 62.8766 67.344 62.4241 66.9482 62.1983L64.5157 60.7833C64.0632 60.5575 63.554 60.5575 63.1582 60.7833L60.0465 62.5941L57.8965 63.8383L54.7857 65.6491C54.3324 65.8749 53.824 65.8749 53.4274 65.6491L48.8458 62.99C48.3933 62.7075 48.1666 62.2542 48.1666 61.8017V56.4842C48.1666 56.0317 48.3933 55.5792 48.8458 55.3525L53.4841 52.6375C53.9366 52.4108 54.4458 52.4108 54.8416 52.6375L59.3674 55.2967C59.8199 55.5792 60.0466 56.0317 60.0466 56.4842V58.4075L57.8966 59.6525V57.7858C57.8966 57.2766 57.6141 56.8241 57.2183 56.5975L54.7858 55.1267C54.3325 54.9 53.8241 54.9 53.4275 55.1267L50.995 56.5408C50.5425 56.8241 50.3167 57.2766 50.3167 57.7291V60.5574C50.3167 61.0666 50.5992 61.5191 50.995 61.7457L53.4275 63.2165C53.88 63.4423 54.3892 63.4423 54.7858 63.2165L57.8966 61.349L60.0466 60.1615L63.2141 58.2948C63.6674 58.0681 64.1758 58.0681 64.5724 58.2948L69.1541 60.9531C69.6066 61.2364 69.8333 61.6889 69.8333 62.1414V67.5156C69.8333 68.025 69.5508 68.4775 69.1542 68.7033Z" fill="white"/>
<defs>
<linearGradient id="paint0_linear_6_3" x1="47.6194" y1="-16.8536" x2="88.5404" y2="113.07" gradientUnits="userSpaceOnUse">
<stop stop-color="#18C9F2" stop-opacity="0.58"/>
<stop offset="0.857105" stop-color="#7900E9" stop-opacity="0"/>
</linearGradient>
<linearGradient id="paint1_linear_6_3" x1="89" y1="10" x2="132.883" y2="51.811" gradientUnits="userSpaceOnUse">
<stop stop-color="#15CFF5"/>
<stop offset="0.541667" stop-color="#3670DB"/>
<stop offset="1" stop-color="#521DC3"/>
</linearGradient>
</defs>
</svg>
