<svg width="91" height="91" viewBox="0 0 91 91" fill="none" xmlns="http://www.w3.org/2000/svg">
<path d="M0 8C0 3.58172 3.58172 0 8 0H83C87.4183 0 91 3.58172 91 8V91H0V8Z" fill="url(#paint0_linear_38_2)"/>
<rect x="14" y="17" width="60" height="60" rx="7" fill="url(#paint1_linear_38_2)"/>
<path d="M44 32C35.7158 32 29 38.7158 29 47C29 55.2842 35.7158 62 44 62C52.2842 62 59 55.2842 59 47C59 38.7158 52.2842 32 44 32ZM54.1542 53.7033L49.5725 56.3625C49.12 56.5892 48.6108 56.5892 48.2142 56.3625L43.6325 53.7033C43.18 53.4208 42.9533 52.9683 42.9533 52.5158V50.6491L45.1033 49.4041V51.2141C45.1033 51.7233 45.3858 52.1758 45.7816 52.4024L48.2141 53.8166C48.6674 54.0433 49.1758 54.0433 49.5724 53.8166L51.9482 52.4024C52.4007 52.1199 52.6265 51.6674 52.6265 51.2141V48.3858C52.6265 47.8766 52.344 47.4241 51.9482 47.1983L49.5157 45.7833C49.0632 45.5575 48.554 45.5575 48.1582 45.7833L45.0465 47.5941L42.8965 48.8383L39.7857 50.6491C39.3324 50.8749 38.824 50.8749 38.4274 50.6491L33.8458 47.99C33.3933 47.7075 33.1666 47.2542 33.1666 46.8017V41.4842C33.1666 41.0317 33.3933 40.5792 33.8458 40.3525L38.4841 37.6375C38.9366 37.4108 39.4458 37.4108 39.8416 37.6375L44.3674 40.2967C44.8199 40.5792 45.0466 41.0317 45.0466 41.4842V43.4075L42.8966 44.6525V42.7858C42.8966 42.2766 42.6141 41.8241 42.2183 41.5975L39.7858 40.1267C39.3325 39.9 38.8241 39.9 38.4275 40.1267L35.995 41.5408C35.5425 41.8241 35.3167 42.2766 35.3167 42.7291V45.5574C35.3167 46.0666 35.5992 46.5191 35.995 46.7457L38.4275 48.2165C38.88 48.4423 39.3892 48.4423 39.7858 48.2165L42.8966 46.349L45.0466 45.1615L48.2141 43.2948C48.6674 43.0681 49.1758 43.0681 49.5724 43.2948L54.1541 45.9531C54.6066 46.2364 54.8333 46.6889 54.8333 47.1414V52.5156C54.8333 53.025 54.5508 53.4775 54.1542 53.7033Z" fill="white"/>
<defs>
<linearGradient id="paint0_linear_38_2" x1="35.8129" y1="-12.675" x2="66.5883" y2="85.036" gradientUnits="userSpaceOnUse">
<stop stop-color="#18C9F2" stop-opacity="0.58"/>
<stop offset="0.857105" stop-color="#7900E9" stop-opacity="0"/>
</linearGradient>
<linearGradient id="paint1_linear_38_2" x1="74" y1="-4.99996" x2="117.883" y2="36.811" gradientUnits="userSpaceOnUse">
<stop stop-color="#15CFF5"/>
<stop offset="0.541667" stop-color="#3670DB"/>
<stop offset="1" stop-color="#521DC3"/>
</linearGradient>
</defs>
</svg>
