<svg width="14" height="8" viewBox="0 0 14 8" fill="none" xmlns="http://www.w3.org/2000/svg">
<path fill-rule="evenodd" clip-rule="evenodd" d="M11.7966 3.50547L9.64661 1.35547L9.62361 1.33047C9.60411 1.30697 9.59861 1.30147 9.58211 1.27597C9.42661 1.03897 9.52611 0.672972 9.78561 0.549472C9.83711 0.524972 9.89311 0.508972 9.94961 0.503472C10.0151 0.496472 10.0311 0.501972 10.0521 0.503472C10.1431 0.515972 10.2311 0.547472 10.3036 0.602472C10.3276 0.620972 10.3326 0.626472 10.3551 0.647472L13.3596 3.65197C13.3806 3.67447 13.3861 3.67947 13.4046 3.70347C13.5351 3.87547 13.5381 4.13297 13.4046 4.30897C13.3861 4.33297 13.3806 4.33797 13.3596 4.36047L10.3551 7.36497C10.3326 7.38597 10.3276 7.39147 10.3036 7.40997C10.0361 7.61247 9.57011 7.45847 9.50761 7.09597C9.48411 6.96147 9.51911 6.81747 9.60161 6.70847C9.62011 6.68397 9.62611 6.67897 9.64661 6.65697L11.7966 4.50697H0.986613C0.946613 4.50197 0.906113 4.50197 0.867113 4.49247C0.521113 4.40697 0.350613 3.90097 0.654613 3.63147C0.715613 3.57747 0.788113 3.53947 0.867113 3.51997C0.906113 3.51047 0.946613 3.51047 0.986613 3.50547H11.7966Z" fill="black"/>
</svg>
