<?xml version="1.0" encoding="UTF-8"?>
<svg width="17px" height="16px" viewBox="0 0 17 16" version="1.1" xmlns="http://www.w3.org/2000/svg" xmlns:xlink="http://www.w3.org/1999/xlink">
    <title>08202B93-3542-405C-B709-D6F242FCE764</title>
    <g id="Page-1" stroke="none" stroke-width="1" fill="none" fill-rule="evenodd">
        <g id="HL-dashboard---lead---timeline" transform="translate(-768.000000, -661.000000)" fill="#7F8FA4" fill-rule="nonzero">
            <g id="Group-4" transform="translate(157.000000, 100.000000)">
                <g id="Group-3" transform="translate(20.000000, 291.000000)">
                    <g id="Group-2" transform="translate(17.000000, 17.000000)">
                        <g id="Widgets/Dropdown-Copy" transform="translate(561.000000, 212.000000)">
                            <g id="Section" transform="translate(13.000000, 4.000000)">
                                <g id="2140633" transform="translate(0.000000, 37.000000)">
                                    <path d="M8.00553571,1.14588108e-05 C4.64956276,-0.00216293135 1.64896206,2.09049785 0.491372602,5.24050512 C-0.666216857,8.3905124 0.265306129,11.9281809 2.82411073,14.099604 C5.38291533,16.2710271 9.0250048,16.6145645 11.9447026,14.9598972 L14.9526773,15.9622888 C15.0344271,15.9881013 15.1197518,16.000792 15.2054752,15.9999618 C15.4624868,15.9996934 15.7037544,15.8760289 15.8539776,15.6674912 C16.0042009,15.4589535 16.0450846,15.1909395 15.9638688,14.9470973 L14.9654772,11.9391226 C16.3727157,9.46360986 16.3561876,6.42625427 14.9220917,3.96620293 C13.4879959,1.5061516 10.8530715,-0.00480038973 8.00553571,1.14588108e-05 L8.00553571,1.14588108e-05 Z M13.327891,12.0967213 L13.9406858,13.9367058 L12.1007013,13.323911 C11.8733355,13.246377 11.6231056,13.2757812 11.419907,13.4039103 C8.65725106,15.1523094 5.02172863,14.5436926 2.97913563,11.9908548 C0.936542634,9.43801688 1.14024434,5.75753548 3.4520799,3.44569992 C5.76391546,1.13386435 9.44439686,0.930162653 11.9972347,2.97275565 C14.5500726,5.01534865 15.1586894,8.65087108 13.4102903,11.413527 C13.2812769,11.6172066 13.2510039,11.8682083 13.327891,12.0967213 L13.327891,12.0967213 Z" id="Shape"></path>
                                    <path d="M11.2055088,5.19997926 L4.80556261,5.19997926 C4.36373852,5.19997926 4.00556934,5.55814845 4.00556934,5.99997253 C4.00556934,6.44179662 4.36373852,6.79996581 4.80556261,6.79996581 L11.2055088,6.79996581 C11.6473329,6.79996581 12.0055021,6.44179662 12.0055021,5.99997253 C12.0055021,5.55814845 11.6473329,5.19997926 11.2055088,5.19997926 Z M8.00553571,9.19994564 L4.80556261,9.19994564 C4.36373852,9.19994564 4.00556934,9.55811482 4.00556934,9.99993891 C4.00556934,10.441763 4.36373852,10.7999322 4.80556261,10.7999322 L8.00553571,10.7999322 C8.4473598,10.7999322 8.80552899,10.441763 8.80552899,9.99993891 C8.80552899,9.55811482 8.4473598,9.19994564 8.00553571,9.19994564 Z" id="Shape"></path>
                                </g>
                            </g>
                        </g>
                    </g>
                </g>
            </g>
        </g>
    </g>
</svg>