<svg width="15" height="16" viewBox="0 0 15 16" fill="none" xmlns="http://www.w3.org/2000/svg">
<rect x="6.07999" y="3.2" width="4.48" height="0.64" fill="#979EAB"/>
<rect x="6.07999" y="1.92" width="4.48" height="0.64" fill="#979EAB"/>
<path fill-rule="evenodd" clip-rule="evenodd" d="M0 14.08H12.8V0H3.84V3.84H0V14.08ZM12.16 13.44H0.64V4.48H4.48V0.64H12.16V13.44Z" fill="#979EAB"/>
<path fill-rule="evenodd" clip-rule="evenodd" d="M3.2 3.2H0V2.42746L2.42746 0H3.2V3.2ZM1.92 16H14.72V1.92H12.16V13.44H1.92V16ZM14.08 15.36H2.56V14.08H12.8V2.56H14.08V15.36ZM2.56 2.56H0.772544L2.56 0.772544V2.56Z" fill="#979EAB"/>
<path fill-rule="evenodd" clip-rule="evenodd" d="M2.23999 12.16H10.56V5.12H2.23999V12.16ZM9.91999 11.52H2.87999V5.76H9.91999V11.52Z" fill="#979EAB"/>
<path d="M5.75999 10.3725L4.25375 8.86624L4.70623 8.41376L5.75999 9.46745L8.09375 7.13376L8.54623 7.58624L5.75999 10.3725Z" fill="#979EAB"/>
</svg>
