<?xml version="1.0" encoding="UTF-8"?>
<svg width="9px" height="16px" viewBox="0 0 9 16" version="1.1" xmlns="http://www.w3.org/2000/svg" xmlns:xlink="http://www.w3.org/1999/xlink">
    <title>A9E1A907-01ED-454B-99A6-EDB6AB1C76EB</title>
    <defs>
        <path d="M4.5,14.111059 L7.73813768,10.2561314 C7.99998818,9.94440444 8.45485627,9.91281637 8.75411399,10.1855774 C9.05337171,10.4583385 9.08369625,10.9321597 8.82184575,11.2438866 L5.04185403,15.7438789 C4.75499853,16.0853737 4.24500147,16.0853737 3.95814597,15.7438789 L0.178154255,11.2438866 C-0.0836962493,10.9321597 -0.0533717101,10.4583385 0.245886009,10.1855774 C0.545143727,9.91281637 1.00001182,9.94440444 1.26186232,10.2561314 L4.5,14.111059 Z M4.5,1.88894096 L7.73813768,5.74386862 C7.99998818,6.05559556 8.45485627,6.08718363 8.75411399,5.81442256 C9.05337171,5.54166149 9.08369625,5.06784034 8.82184575,4.7561134 L5.04185403,0.256121105 C4.75499853,-0.0853737018 4.24500147,-0.0853737018 3.95814597,0.256121105 L0.178154255,4.7561134 C-0.0836962493,5.06784034 -0.0533717101,5.54166149 0.245886009,5.81442256 C0.545143727,6.08718363 1.00001182,6.05559556 1.26186232,5.74386862 L4.5,1.88894096 Z" id="path-1"></path>
    </defs>
    <g id="Page-1" stroke="none" stroke-width="1" fill="none" fill-rule="evenodd">
        <g id="HL-dashboard---lead---timeline" transform="translate(-1033.000000, -265.000000)">
            <g id="Group-4" transform="translate(157.000000, 100.000000)">
                <g id="Guests" transform="translate(698.000000, 155.000000)">
                    <g id="Action-Icon" transform="translate(164.000000, 0.000000)">
                        <g id="Icon" transform="translate(14.000000, 10.000000)">
                            <mask id="mask-2" fill="white">
                                <use xlink:href="#path-1"></use>
                            </mask>
                            <use id="Double-Arrow" fill="#7F8FA4" xlink:href="#path-1"></use>
                        </g>
                    </g>
                </g>
            </g>
        </g>
    </g>
</svg>