<?xml version="1.0" encoding="UTF-8"?>
<svg width="37px" height="28px" viewBox="0 0 37 28" version="1.1" xmlns="http://www.w3.org/2000/svg" xmlns:xlink="http://www.w3.org/1999/xlink">
    <title>64CE6908-1CEC-4113-8D83-08417FE59D84</title>
    <g id="Page-1" stroke="none" stroke-width="1" fill="none" fill-rule="evenodd">
        <g id="HL-dashboard---lead---add-disbursement" transform="translate(-1165.000000, -271.000000)" fill-rule="nonzero">
            <g id="All-Files-Copy-5" transform="translate(980.000000, 60.000000)">
                <g id="Files" transform="translate(23.863262, 110.000000)">
                    <g id="Group-5" transform="translate(0.000000, 51.000000)">
                        <g id="form-/-input-box-copy" transform="translate(0.000000, 30.000000)">
                            <g id="Upload-Data-In-Cloud" transform="translate(162.000000, 20.000000)">
                                <path d="M28.6153846,11.6923077 C32,11.6923077 34.7692308,14.4615385 34.7692308,17.8461538 C34.7692308,21.2307692 32,24 28.6153846,24 L7.07692308,24 C3.69230769,24 0.923076923,21.2307692 0.923076923,17.8461538 C0.923076923,14.4615385 3.69230769,11.6923077 7.07692308,11.6923077 L8.61538462,11.6923077 L8.61538462,10.1538462 C8.61538462,5.04615385 12.7384615,0.923076923 17.8461538,0.923076923 C22.9538462,0.923076923 27.0769231,5.04615385 27.0769231,10.1538462 L27.0769231,11.6923077 L28.6153846,11.6923077 Z" id="Path" fill="#FFFFFF"></path>
                                <path d="M28.6153846,24.9230769 L25.5384615,24.9230769 C25.0153846,24.9230769 24.6153846,24.5230769 24.6153846,24 C24.6153846,23.4769231 25.0153846,23.0769231 25.5384615,23.0769231 L28.6153846,23.0769231 C31.5076923,23.0769231 33.8461538,20.7384615 33.8461538,17.8461538 C33.8461538,14.9538462 31.5076923,12.6153846 28.6153846,12.6153846 L27.0769231,12.6153846 C26.5538462,12.6153846 26.1538462,12.2153846 26.1538462,11.6923077 L26.1538462,10.1538462 C26.1538462,5.56923077 22.4307692,1.84615385 17.8461538,1.84615385 C13.2615385,1.84615385 9.53846154,5.56923077 9.53846154,10.1538462 L9.53846154,11.6923077 C9.53846154,12.2153846 9.13846154,12.6153846 8.61538462,12.6153846 L7.07692308,12.6153846 C4.18461538,12.6153846 1.84615385,14.9538462 1.84615385,17.8461538 C1.84615385,20.7384615 4.18461538,23.0769231 7.07692308,23.0769231 L10.1538462,23.0769231 C10.6769231,23.0769231 11.0769231,23.4769231 11.0769231,24 C11.0769231,24.5230769 10.6769231,24.9230769 10.1538462,24.9230769 L7.07692308,24.9230769 C3.16923077,24.9230769 0,21.7538462 0,17.8461538 C0,13.9384615 3.16923077,10.7692308 7.07692308,10.7692308 L7.69230769,10.7692308 L7.69230769,10.1538462 C7.69230769,4.55384615 12.2461538,0 17.8461538,0 C23.4461538,0 28,4.55384615 28,10.1538462 L28,10.7692308 L28.6153846,10.7692308 C32.5230769,10.7692308 35.6923077,13.9384615 35.6923077,17.8461538 C35.6923077,21.7538462 32.5230769,24.9230769 28.6153846,24.9230769 Z" id="Path" fill="#444B54"></path>
                                <path d="M17.8461538,28 C17.3230769,28 16.9230769,27.6 16.9230769,27.0769231 L16.9230769,17.8461538 C16.9230769,17.3230769 17.3230769,16.9230769 17.8461538,16.9230769 C18.3692308,16.9230769 18.7692308,17.3230769 18.7692308,17.8461538 L18.7692308,27.0769231 C18.7692308,27.6 18.3692308,28 17.8461538,28 Z" id="Path" fill="#6161FF"></path>
                                <path d="M20.9230769,21.8461538 C20.6769231,21.8461538 20.4615385,21.7538462 20.2769231,21.5692308 L17.8461538,19.1384615 L15.4153846,21.5692308 C15.0461538,21.9384615 14.4615385,21.9384615 14.1230769,21.5692308 C13.7538462,21.2 13.7538462,20.6153846 14.1230769,20.2769231 L17.2,17.2 C17.5692308,16.8307692 18.1538462,16.8307692 18.4923077,17.2 L21.5692308,20.2769231 C21.9384615,20.6461538 21.9384615,21.2307692 21.5692308,21.5692308 C21.3846154,21.7538462 21.1692308,21.8461538 20.9230769,21.8461538 Z" id="Path" fill="#6161FF"></path>
                            </g>
                        </g>
                    </g>
                </g>
            </g>
        </g>
    </g>
</svg>